<svg xmlns="http://www.w3.org/2000/svg" viewBox="0 0 255.9 85.01"><defs><style>.cls-1{fill:#e2451b;}</style></defs><g id="Camada_2" data-name="Camada 2"><g id="Camada_1-2" data-name="Camada 1"><polygon class="cls-1" points="5.77 17.65 20.33 17.65 20.33 57.09 34.74 57.09 34.74 17.65 49.3 17.65 49.3 5.09 0 5.09 5.77 17.65"/><path class="cls-1" d="M94.27,31.61A16.66,16.66,0,0,0,96.8,22a19.06,19.06,0,0,0-1.45-7.84A13,13,0,0,0,91.23,9,17.62,17.62,0,0,0,84.8,6a34.4,34.4,0,0,0-8.28-.93H53.27v52H67.39V39.56H73.2l8.48,17.53H97.84L87.42,37.25A15.91,15.91,0,0,0,94.27,31.61ZM81,26.71c-1,1-2.69,1.48-5.07,1.48H67.39V16.83h8.73q3.43,0,4.89,1.56a5.63,5.63,0,0,1,1.45,4A5.8,5.8,0,0,1,81,26.71Z"/><rect class="cls-1" x="102.25" y="19.19" width="14.71" height="37.9"/><polygon class="cls-1" points="170.55 5.09 154.5 5.09 145.44 34.3 136.38 5.09 120.19 5.09 138.09 57.09 152.65 57.09 170.55 5.09"/><polygon class="cls-1" points="229.81 44.53 229.81 5.09 215.25 5.09 215.25 57.09 255.87 57.09 250.1 44.53 229.81 44.53"/><polygon class="cls-1" points="208.78 44.98 188.04 44.98 188.04 36.07 208.78 36.07 208.78 24.18 188.04 24.18 188.04 17.2 208.78 17.2 208.78 5.09 173.78 5.09 173.78 57.09 208.78 57.09 208.78 44.98"/><polygon class="cls-1" points="116.96 19.19 116.96 5.09 100.45 5.09 116.96 19.19"/><polygon class="cls-1" points="54.01 73.98 58.28 73.98 55.37 84.75 59.34 84.75 62.22 73.98 66.49 73.98 67.4 70.52 54.95 70.52 54.01 73.98"/><path class="cls-1" d="M86.13,78.35a4.82,4.82,0,0,1-1.2,2.35,2.66,2.66,0,0,1-1.91.76,2,2,0,0,1-2.21-2.08A5.11,5.11,0,0,1,81,78l2-7.52H79l-2,7.24A9.29,9.29,0,0,0,76.76,80c0,3.13,2.1,5,5.75,5a7.1,7.1,0,0,0,5.24-1.83A9.16,9.16,0,0,0,90,78.94l2.25-8.42h-4Z"/><path class="cls-1" d="M110.1,70.52h-5.37l-3.82,14.23h4L106,80.44h1.75l1.89,4.31H114L111.83,80c2.9-.79,4.26-2.66,4.26-5A4,4,0,0,0,115,72C114,71.05,112.48,70.52,110.1,70.52Zm-1,6.83h-2.25l.93-3.41h2.14a2.41,2.41,0,0,1,1.74.49,1.29,1.29,0,0,1,.37.95C112,76.6,110.87,77.35,109.1,77.35Z"/><polygon class="cls-1" points="125.8 84.75 129.74 84.75 133.56 70.52 129.62 70.52 125.8 84.75"/><path class="cls-1" d="M150.36,73.55a5.69,5.69,0,0,1,3.76,1.57l2.44-2.73a8.26,8.26,0,0,0-5.84-2.11c-3.47,0-6,2-6,4.84,0,2.09,1.44,3.06,3.7,3.92,2,.77,2.37,1,2.37,1.6s-.67,1.06-1.6,1.06a6.38,6.38,0,0,1-4.39-1.93l-2.54,2.62a8.75,8.75,0,0,0,6.6,2.6c3.54,0,6.06-2,6.06-4.92,0-2.13-1.5-3.13-3.7-4-1.95-.77-2.38-1-2.38-1.54S149.4,73.55,150.36,73.55Z"/><polygon class="cls-1" points="175.41 76.03 173.51 70.52 169.53 70.52 165.71 84.75 169.61 84.75 171.79 76.62 173.88 82.15 173.96 82.15 179.06 76.58 176.89 84.75 180.85 84.75 184.67 70.52 180.24 70.52 175.41 76.03"/><path class="cls-1" d="M203.23,70.26a8.44,8.44,0,0,0-8.47,8.37c0,3.62,2.74,6.38,6.79,6.38A8.44,8.44,0,0,0,210,76.64C210,73,207.28,70.26,203.23,70.26Zm-1.34,11.22a2.93,2.93,0,0,1-3.11-3.15c0-2.12,1.63-4.53,4.11-4.53A2.92,2.92,0,0,1,206,76.94C206,79.06,204.39,81.48,201.89,81.48Z"/><path class="cls-1" d="M253,4.35c0-1.12-.91-1.75-2.13-1.75h-2.51V8.14h1.07V6.23h.82l1.65,1.91h1.29l-1.64-2A1.79,1.79,0,0,0,253,4.35Zm-3.57,1V3.54h1.35c.72,0,1.12.31,1.12.91s-.4.9-1.12.9Z"/><path class="cls-1" d="M250.45,0A5.47,5.47,0,0,0,245,5.48v0a5.45,5.45,0,1,0,10.89,0v0A5.43,5.43,0,0,0,250.45,0Zm4.82,5.48a4.82,4.82,0,1,1-9.64,0v0A4.84,4.84,0,0,1,250.45.59a4.79,4.79,0,0,1,4.82,4.86Z"/></g></g></svg>