<svg xmlns="http://www.w3.org/2000/svg" viewBox="0 0 256.69 85.27"><defs><style>.cls-1{fill:#222221;}</style></defs><g id="Camada_2" data-name="Camada 2"><g id="Camada_1-2" data-name="Camada 1"><polygon class="cls-1" points="5.79 17.7 20.39 17.7 20.39 57.26 34.84 57.26 34.84 17.7 49.45 17.7 49.45 5.11 0 5.11 5.79 17.7"/><path class="cls-1" d="M94.56,31.71A16.77,16.77,0,0,0,97.1,22.1a19.12,19.12,0,0,0-1.46-7.86A13.08,13.08,0,0,0,91.51,9,17.71,17.71,0,0,0,85.06,6a34.51,34.51,0,0,0-8.3-.93H53.44V57.26H67.59V39.68h5.83l8.51,17.58H98.14L87.69,37.37A16.14,16.14,0,0,0,94.56,31.71ZM81.22,26.79q-1.5,1.49-5.09,1.49H67.59V16.88h8.76c2.3,0,3.93.52,4.91,1.56a5.7,5.7,0,0,1,1.46,4A5.82,5.82,0,0,1,81.22,26.79Z"/><rect class="cls-1" x="102.57" y="19.25" width="14.75" height="38.02"/><polygon class="cls-1" points="171.07 5.11 154.98 5.11 145.89 34.41 136.8 5.11 120.56 5.11 138.51 57.26 153.12 57.26 171.07 5.11"/><polygon class="cls-1" points="230.52 44.67 230.52 5.11 215.91 5.11 215.91 57.26 256.65 57.26 250.87 44.67 230.52 44.67"/><polygon class="cls-1" points="209.42 45.12 188.61 45.12 188.61 36.18 209.42 36.18 209.42 24.26 188.61 24.26 188.61 17.25 209.42 17.25 209.42 5.11 174.31 5.11 174.31 57.26 209.42 57.26 209.42 45.12"/><polygon class="cls-1" points="117.32 19.25 117.32 5.11 100.76 5.11 117.32 19.25"/><polygon class="cls-1" points="54.18 74.21 58.46 74.21 55.54 85.01 59.52 85.01 62.41 74.21 66.69 74.21 67.61 70.74 55.12 70.74 54.18 74.21"/><path class="cls-1" d="M86.39,78.59A4.78,4.78,0,0,1,85.19,81a2.66,2.66,0,0,1-1.91.76,2,2,0,0,1-2.23-2.08,5.14,5.14,0,0,1,.21-1.35l2-7.54h-4l-2,7.26A9.34,9.34,0,0,0,77,80.28c0,3.14,2.1,5,5.77,5A7.13,7.13,0,0,0,88,83.44a9.29,9.29,0,0,0,2.23-4.26l2.26-8.44h-4Z"/><path class="cls-1" d="M110.44,70.74h-5.38L101.22,85h4l1.16-4.32h1.75L110,85h4.36l-2.2-4.81c2.91-.8,4.28-2.67,4.28-5.06a4,4,0,0,0-1.1-2.91C114.39,71.27,112.82,70.74,110.44,70.74Zm-1,6.85h-2.26l.93-3.43h2.14a2.52,2.52,0,0,1,1.76.49,1.36,1.36,0,0,1,.36,1C112.37,76.83,111.21,77.59,109.44,77.59Z"/><polygon class="cls-1" points="126.18 85.01 130.14 85.01 133.97 70.74 130.01 70.74 126.18 85.01"/><path class="cls-1" d="M150.82,73.78a5.69,5.69,0,0,1,3.77,1.57L157,72.62a8.25,8.25,0,0,0-5.85-2.12c-3.49,0-6.06,2-6.06,4.85,0,2.1,1.45,3.07,3.71,3.93,2,.77,2.39,1.06,2.39,1.61S150.55,82,149.62,82A6.39,6.39,0,0,1,145.21,80l-2.54,2.63a8.8,8.8,0,0,0,6.62,2.61c3.55,0,6.07-2,6.07-4.93,0-2.14-1.5-3.14-3.7-4-2-.77-2.39-1-2.39-1.54S149.86,73.78,150.82,73.78Z"/><polygon class="cls-1" points="175.94 76.26 174.05 70.74 170.05 70.74 166.22 85.01 170.13 85.01 172.31 76.85 174.41 82.4 174.5 82.4 179.61 76.81 177.43 85.01 181.41 85.01 185.24 70.74 180.79 70.74 175.94 76.26"/><path class="cls-1" d="M203.86,70.48a8.47,8.47,0,0,0-8.5,8.39c0,3.63,2.75,6.4,6.81,6.4a8.46,8.46,0,0,0,8.49-8.39C210.66,73.25,207.91,70.48,203.86,70.48Zm-1.35,11.25a2.93,2.93,0,0,1-3.12-3.16c0-2.12,1.63-4.55,4.12-4.55a2.93,2.93,0,0,1,3.12,3.16C206.63,79.3,205,81.73,202.51,81.73Z"/><path class="cls-1" d="M253.73,4.36c0-1.12-.91-1.75-2.13-1.75h-2.51V8.16h1.06V6.25H251l1.65,1.91h1.29l-1.64-2A1.78,1.78,0,0,0,253.73,4.36Zm-3.58,1V3.55h1.35c.73,0,1.13.31,1.13.91s-.4.91-1.13.91Z"/><path class="cls-1" d="M251.22,0a5.49,5.49,0,0,0-5.46,5.5v0a5.47,5.47,0,1,0,10.93,0v0A5.45,5.45,0,0,0,251.22,0Zm4.84,5.5a4.85,4.85,0,0,1-4.84,4.89,4.8,4.8,0,0,1-4.83-4.86v0a4.84,4.84,0,1,1,9.67,0Z"/></g></g></svg>