<?xml version="1.0" encoding="utf-8"?>
<!-- Generator: Adobe Illustrator 27.0.0, SVG Export Plug-In . SVG Version: 6.00 Build 0)  -->
<svg version="1.1" id="Camada_1" xmlns="http://www.w3.org/2000/svg" xmlns:xlink="http://www.w3.org/1999/xlink" x="0px" y="0px"
	 viewBox="0 0 99.2 106.3" style="enable-background:new 0 0 99.2 106.3;" xml:space="preserve">
<style type="text/css">
	.st0{fill:#FFFFFF;}
</style>
<g>
	<path class="st0" d="M21.8,38.4L21.8,38.4L21.8,38.4z"/>
	<path class="st0" d="M18.7,21.8C18.7,21.9,18.7,21.9,18.7,21.8C18.7,21.9,18.7,21.9,18.7,21.8z"/>
	<path class="st0" d="M52.6,32.3L52.6,32.3L52.6,32.3z"/>
	<path class="st0" d="M70.8,72.7L70.8,72.7L70.8,72.7z"/>
	<path class="st0" d="M54.6,51.8L54.6,51.8L54.6,51.8z"/>
	<path class="st0" d="M94.6,62.3c-0.4-1.2-1-2.1-1.6-2.8c0.1,0.1,0.2,0.3,0.4,0.4c0,0-1.2-2.8-6.7-3.5c5.2-1.1,9.1,0.2,9.1,0.2
		c-5-1.7-11.6-0.5-11.6-0.5c0.8-0.5,8-1.1,8-1.1c-4.3-0.2-9.2,0.9-9.2,0.9c1.2-0.5,8.8-2.4,8.8-2.4c-0.4,0-0.8,0.1-1.3,0.2
		c-0.9-0.1-1.7,0-2.6,0c0.3-0.1,0.6-0.1,0.6-0.1c-0.6,0.1-1.2,0.2-1.7,0.3c-4.1,0.6-7.7,2.3-7.7,2.3c0.6-0.7,7.4-3,7.4-3
		c-4.3,0.8-8.7,3.1-8.7,3.1c0.5-0.4,2.2-1.3,3.8-2.3c0.5-0.1,0.7-0.2,0.7-0.2c-0.2,0-0.4,0-0.5,0.1c1.2-0.5,2.1-0.9,2.1-0.9
		c-0.4,0.1-0.7,0.2-1.1,0.3c1.6-0.9,2.9-1.6,2.9-1.6c-1,0.4-2.6,1.2-4.1,2c-0.3,0.1-0.5,0.2-0.8,0.3c-0.4,0.1-0.7,0.2-1.1,0.3
		c1.6-1,2.9-1.7,2.9-1.7c-0.9,0.3-1.7,0.7-2.4,1.1c-1.7,0.6-3.3,1.4-4.7,2.1c-0.9,0.4-1.7,0.8-2.3,1.2c0.3-0.3,0.7-0.6,1.2-0.9
		c1.9-1.1,4.1-2.3,4.1-2.3c-0.9,0.3-1.7,0.7-2.5,1.1c1.8-1.3,3.6-2.6,3.6-2.6c-1.1,0.6-3.1,1.9-4.7,3.2c0.3-0.3,0.6-0.6,0.9-0.9
		c0,0-0.8,0.7-2,1.5c-0.4,0.2-0.7,0.4-1,0.6c1.8-1.8,3.9-3.2,3.9-3.2c-0.5,0.3-0.9,0.5-1.4,0.8c1.3-1,2.3-1.8,2.3-1.8
		c-0.2,0.1-0.5,0.3-0.7,0.5c0.4-0.4,0.8-0.7,1.1-1c0,0-1.3,1-2.8,2.2c0.5-0.4,1-0.9,1.5-1.5c0,0-1.8,1.6-4,3
		c0.2-0.2,0.4-0.4,0.6-0.6c0.9-0.7,1.5-1.2,1.5-1.2c-0.3,0.2-0.6,0.4-0.9,0.5c0.2-0.2,0.4-0.4,0.5-0.6c1.6-1.3,3.4-2.9,4.2-3.8
		c0,0-1.6,1.3-3.3,2.7c0.6-0.7,1.1-1.4,1.6-2.1c0,0-1.6,1.7-3.1,3.3c-0.4,0.4-0.9,0.7-1.3,1c0.6-0.7,1.4-1.6,2.2-2.6
		c0.9-1,1.8-2.2,2.6-3.4c0.6-0.6,1.2-1.3,1.7-2.2c0,0-0.9,1.1-2.2,2.3c0.2-0.4,0.4-0.9,0.6-1.3c0.1-0.1,0.1-0.2,0.2-0.3
		c1.2-1.3,2.4-2.7,3-3.6c0,0-1,1.1-2.3,2.5c0.2-0.3,0.4-0.7,0.6-1c0,0-0.5,0.6-1.1,1.5c0-0.1,0-0.1,0.1-0.2c0,0,0,0.1-0.1,0.3
		c-0.2,0.3-0.4,0.6-0.7,0.8c-1.3,1.3-2.5,2.6-2.9,3c0,0,3.4-3.9,5.2-8c0,0-4,6.3-4.8,6.7c0,0,2.5-3.2,4.1-7.2
		c0.3-0.5,0.5-1.1,0.7-1.7c0,0-0.1,0.2-0.3,0.6c0.3-0.8,0.5-1.7,0.6-2.6c0.2-0.5,0.4-0.9,0.5-1.3c0,0-3.7,7.1-4.5,8.2
		c0,0,2.3-4.6,3-9c0,0-2.2,6.9-2.9,7.7c0,0,0,0,0-0.1c0.3-0.7,2.7-6.6,2.1-11.7c0,0,0.4,4.1-1.8,9c0.4-5.5-2.2-7.3-2.2-7.3
		c0.8,1,1.3,2.1,1.7,3.2c-0.6-1.3-1.8-3.2-4.3-4.7c0,0,3.5,2.6,4,6.3c0,0,0,0,0-0.1c-0.2-0.7-0.8-3.1-2.8-4.9c0,0,1.1,1.1,2.1,3.8
		c-0.7-0.9-1.6-1.9-2.9-2.9c0,0,2.7,2.3,3.4,5.4c-0.5-0.7-1.3-1.8-2.4-2.7c-0.2-0.2-0.5-0.4-0.7-0.6c0,0,0,0,0.1,0.1
		c-0.6-0.4-1.2-0.7-1.8-0.9c0,0,1.8,1.2,3.5,3.1c0.7,1.2,1.4,2.6,1.6,4.2c0,0-2-4.1-5-5c0,0,3.9,3,5.1,6.9c-0.1,0.3-0.2,0.6-0.3,1
		c-0.1-0.6-0.5-1.9-1.8-3.4c-0.3-0.5-0.7-1.1-1.1-1.7c0,0,0.2,0.4,0.5,1c-0.5-0.5-1.2-1.1-2-1.6c0,0,1.3,1,2.3,2.4
		c0.4,1,0.8,2.4,0.9,3.8c-0.3-1.3-1-2.9-2.5-4.5c0,0,1.1,1.5,1.6,3.7c-0.6-1.3-1.4-2.8-2.8-3.7c0,0,2.3,2.8,3.1,6.2
		c0,0.4-0.1,0.8-0.2,1.2c0,0,0.2-2.6-2.1-5.3c0,0,2,3.6,1.6,7.1c0,0-0.9-4.4-3.6-6.1c0,0,1.8,2.1,2.7,5c-0.6-1.2-1.6-2.8-3.3-4.1
		c0,0,3.3,3.6,3.2,6.9c0,0-0.8-3.2-3.1-5.1c0,0,0.5,0.6,1,1.5c0.1,0.2,0.7,1.5,0.9,3.1c-0.4-0.7-1-1.7-1.9-2.5
		c-0.9-1.9-2.5-3.8-5.1-5.2c-8.9-4.1-20.9,3.7-20.9,3.7s0.9-0.6,2.5-1.3c0,0-1.7,1.3-3.3,3.2c0,0,3.5-3.2,4.9-3.9
		c0,0-2.4,2.2-4.3,4.8c0,0,3.4-3.6,4.9-4.9C46.9,47,46.2,48,46,49.8c0,0,0,0,0,0.1l0,0c-0.1,0.6,0,1.4,0.1,2.2c0,0,0-1.4,0.5-3.1
		c0.2-0.4,0.6-0.8,1-1.2c-0.2,0.8-0.4,1.8-0.2,3c0,0,0.1-2,1-3.7c0.2-0.2,0.4-0.3,0.6-0.4c-0.1,0.3-0.1,0.6-0.2,0.9
		c-0.4,0.5-0.7,1.1-1,1.8c0,0,0.4-0.6,1-1.3c0,0.4,0,0.8,0,1.2c-0.3,0.9-0.6,1.7-0.7,2.4c0,0,0.3-0.7,0.8-1.7
		c0.1,0.4,0.2,0.7,0.4,1.1c0,0-0.1-0.7-0.1-1.7c0.4-0.9,1-2,1.4-2.9c0.1-0.1,0.2-0.1,0.3-0.2c-0.1,0.3-0.2,0.6-0.3,0.9
		c-0.6,0.8-1.1,1.9-1.2,3.2c0,0,0.3-0.6,0.8-1.4c-0.2,0.9-0.3,1.9-0.3,2.9c0,0,0.4-2.1,1.1-4.2c0.2-0.3,0.4-0.6,0.7-0.9
		c-0.3,1-0.7,2.4-0.8,3.9c0,0,0.9-3.4,2.1-5.3c0.1-0.1,0.2-0.2,0.3-0.2c-0.4,0.8-1.2,2.9-1.2,4.9c-0.9,1.9-0.6,2.4-0.6,2.4
		s0.2-0.6,0.7-1.6c0,0.3,0.1,0.5,0.1,0.7c0,0,0-0.5,0.2-1.3c0.4-0.8,1-1.7,1.8-2.7c0,0.1,0,0.1,0,0.2c-0.3,0.5-0.6,1.1-0.9,1.7
		c-1.3,2.8-1,3.5-1,3.5s0.5-1.8,2-4.2l0.1-0.1c0,0.1,0.1,0.2,0.1,0.3s0.1,0.2,0.1,0.2c-0.5,0.7-0.9,1.5-1.1,2.2c0,0,0.3-0.6,0.9-1.5
		c-0.1,0.2-0.2,0.5-0.3,0.7c0,0,0.2-0.5,0.6-1.1c0.1,0.3,0.1,0.5,0.2,0.7c-0.2,0.5-0.4,1-0.5,1.4c0,0,0.2-0.4,0.6-1.1
		c0,0.1,0,0.2,0,0.4c-0.2,0.6-0.4,1.1-0.5,1.7c-6.2,1.9-10,8.7-11.7,12.2c-0.5,0.3-1.1,0.5-1.6,0.8c0,0,0.5-0.3,1.5-0.6
		c-0.1,0.2-0.2,0.5-0.3,0.6c-1.2,0.3-2.3,0.6-3.1,0.9c0.1-14.1-1-26.8-1.7-33c0.1-0.8,0.4-2.6,0.6-4.2c0.2,1,0.7,2.2,2,3.7
		c0,0-1.4-1.9-1.5-4.2c0.2-0.1,0.3-0.1,0.5-0.2c0.2,0.8,0.6,1.7,1.4,2.6c0,0-0.7-1.2-1-2.7c0.2-0.1,0.4-0.1,0.6-0.2
		c0.1,0.9,0.4,1.9,1.1,3.2c0,0-0.5-1.2-0.6-2.8c0.2,0.2,0.3,0.4,0.5,0.7c0.3,0.5,0.5,0.8,0.5,0.8c-0.1-0.1-0.1-0.3-0.2-0.5
		c0.3,0.2,0.6,0.5,0.9,0.6c0,0-0.5-0.5-1-1.4c0-0.3-0.1-0.6-0.1-0.9l0,0c0.1,0.5,0.3,1.1,0.7,1.8c0,0-0.2-0.8-0.3-1.8
		c0.4-0.1,0.8-0.1,1.1-0.2c0.3,1.6,0.1,3,0.1,3c0.2-0.8,0.2-1.7,0.2-2.6c0.2,0.3,0.5,0.6,0.8,0.9c0,0.5,0.1,0.8,0.1,0.8
		c0.2-0.7,0.2-1.5,0.1-2.2h0.1c0,0.1,0,0.2,0,0.3c0,1.7,0.6,1.9,0.6,1.9c-0.3-0.7-0.1-1.1,0-2.2c0.5,0,0.8,0,0.8,0
		c-0.2-0.1-0.5-0.2-0.7-0.2c0-0.1,0-0.2,0-0.3c0-0.5,0-1.2-0.1-1.7c0.2,0,0.4,0,0.6,0.1c0.4,1.1,0.7,2.6,0.1,4
		c-1.1,2.8-0.4,2.9-0.4,2.9s-0.5-0.3,0.7-2.5c0.2-0.5,0.4-1,0.5-1.6c-0.1,1.2-0.4,2.1-0.4,2.1c0.8-1.2,1.1-2.5,1.2-3.7
		c0.1,1,0,2.2-0.4,3.6c-0.9,2.8-0.3,4.1-0.3,4.1s-0.5-1.3,1-4.9c0.5-1.2,0.6-2.5,0.5-3.6c0.1,0,0.1,0,0.2,0c0.8,2.2,0.7,4.3,0.7,4.3
		c0.1-0.5,0.2-0.9,0.2-1.3c0.1,1.6,0,2.8,0,2.8c0.3-1.9,0.2-3.9,0-5.6c0.2,0.1,0.3,0.1,0.3,0.1c-0.1-0.1-0.2-0.2-0.4-0.3
		c0-0.3-0.1-0.6-0.1-0.9c0.9,1.4,1.3,3,1.4,4.3c-0.1,1-0.4,1.7-0.4,1.7c0.2-0.2,0.3-0.5,0.4-0.7c0,1-0.1,1.7-0.1,1.7
		c0.2-0.9,0.3-1.8,0.4-2.5c0.6-2.4-0.3-5.4-0.6-6.2l0,0c2,3.5,1.2,8.2,1.2,8.2c0.5-1.3,0.6-2.8,0.6-4.1c0.3,1.6,0.3,3.1,0.3,3.8
		c0,0.1,0,0.2-0.1,0.3c-0.7,0.5-1.1,0.8-1.1,0.8c0.3-0.1,0.7-0.3,1-0.5c-0.1,0.5-0.2,0.8-0.2,0.8c0.2-0.3,0.4-0.6,0.5-1
		c0.3-0.2,0.5-0.4,0.8-0.7c0,0.1,0,0.2,0,0.4c-0.2,0.5-0.3,0.9-0.3,1c0-0.1,0.1-0.3,0.2-0.5c-0.1,0.7-0.3,1.1-0.3,1.1
		c0.3-0.5,0.5-1.1,0.7-1.7c0.1-0.1,0.2-0.2,0.3-0.3c-0.1,0.7-0.2,1.2-0.2,1.2c0.2-0.4,0.4-0.9,0.5-1.4c0.2-0.2,0.4-0.3,0.6-0.5
		c-0.1,0.8-0.2,1.3-0.2,1.3c0.1-0.2,0.1-0.5,0.2-0.8c-0.1,1-0.2,1.7-0.2,1.7c0.3-0.7,0.5-1.5,0.5-2.4c0.1,0,0.2-0.1,0.2-0.1
		c0.1-0.1,0.2-0.1,0.3-0.2c0,0.1,0,0.1,0,0.2c-0.4,2.6-1.1,4.3-1.1,4.3s0.7-0.4,1.5-3.4c0.2-0.6,0.3-1.2,0.3-1.8l0.1-0.1
		c0,1.2-0.1,2.3-0.3,3.2c-0.4,0.7-0.7,1.2-0.7,1.2c0.2-0.2,0.4-0.3,0.6-0.5c-0.2,1.1-0.5,1.7-0.5,1.7s0.5-0.3,1-2.3
		c1.3-1.6,1.9-3.7,2.2-4.6c0,0.1,0.1,0.2,0.1,0.3c-0.2,2.2-1.7,5.4-1.7,5.4c0.9-1.3,1.5-2.6,1.8-3.6c0,0.4,0,0.7,0,1.1
		c-0.7,2.1-1.8,4-1.8,4c0.7-0.9,1.2-1.8,1.7-2.6c-0.1,0.9-0.3,1.6-0.3,1.6c0.8-1.1,1-2.3,1.1-3.2c0.1-0.3,0.2-0.6,0.3-0.9
		c0,0.1,0.1,0.2,0.1,0.3c-0.2,0.9-0.4,2.1-0.7,3.1c-0.6,0.8-1.2,1.3-1.2,1.3c0.4-0.2,0.7-0.4,1-0.7c-0.2,1.1-0.4,1.8-0.4,1.8
		c0.3-0.6,0.7-1.4,0.9-2.3c0.3-0.3,0.6-0.6,0.8-0.9c0.1,0.9,0,1.5,0,1.5c0.2-0.7,0.3-1.4,0.3-2c0.2-0.3,0.4-0.6,0.5-0.8
		c0.1,0.2,0.1,0.4,0.2,0.7c-0.4,1.9-1.6,3.6-1.6,3.6c0.9-0.9,1.4-1.8,1.8-2.6c0.1,0.6,0.1,1.1,0,1.5c-0.6,1.6-1.6,2.8-1.6,2.8
		c0.7-0.6,1.1-1.2,1.5-1.8l0,0c0,0,0,0,0-0.1c1.1-1.6,1.1-2.7,1.1-3.4c0.5,1.9,1,6.6,1,6.6c0-3.1-0.6-6.2-0.6-6.2
		c0.7,1.3,1.6,5.8,1.6,5.8c-0.1-2.4-0.7-4.4-0.7-4.4l0,0c0.9,1.4,1.3,2.4,1.3,2.4s-4.6-11.1-13.7-13.2c-2.9-1.2-5.6-1.3-7.5-1.1
		c4.2-0.9,8.4-0.1,8.4-0.1c-3.6-2-9.3-0.3-9.3-0.3c3.8-2.5,9.3-2.5,9.3-2.5c-4.6-0.9-7.5,0.9-7.5,0.9c0.6-0.5,1.3-0.9,2-1.3
		c4.2-0.9,8.3-0.1,8.3-0.1c-1.4-0.8-3.1-1-4.6-1c2.3-0.4,4.1-0.1,4.1-0.1c-3.6-0.8-6.4-0.2-8.2,0.4c2-1.1,4.4-1.7,6.1-1.9
		c2.3,0.3,4.3,1.2,4.3,1.2c-1.1-0.6-2.2-1-3.1-1.3c0.9-0.1,1.4-0.1,1.4-0.1c-1-0.2-1.9-0.3-2.7-0.2c-2.4-0.5-4.1-0.2-5,0.1
		c0.1-0.1,0.3-0.2,0.4-0.4c5.3-1,11,1.5,11,1.5c-3-2.8-8.9-2.5-8.9-2.5c1.9-0.7,3.9-0.8,5.7-0.7c3.3,0.7,5.9,2,5.9,2
		c-0.6-0.7-1.4-1.2-2.3-1.6c0.3,0.1,0.4,0.1,0.4,0.1c-0.9-0.4-1.7-0.7-2.5-0.9c-1.3-0.4-2.6-0.5-3.4-0.6c4.2-1.2,8.5,0.5,8.5,0.5
		c-1.9-0.9-3.6-1.3-5.1-1.5c3.7-0.5,5.6,0.1,5.6,0.1c-3.1-1.1-6.2-0.5-7.3-0.2h-0.1c4.6-1.7,9.8,0.6,9.8,0.6c-3.6-2-6.6-2.2-8.5-2
		c1.8-0.5,3.6-0.6,5.4-0.2c0,0-4.1-2-11,2.6c0.3-0.3,0.5-0.5,0.5-0.5c4.5-5.8,9.9-7.9,9.9-7.9c-6.8,2.6-12.5,9.6-12.5,9.6
		c0.4-1.2,7.3-7.9,7.3-7.9c-4.7,3.5-8.8,8.8-8.8,8.8c0.8-1.6,6.9-10,6.9-10c0.1,0.3-0.3,0.7-0.8,1.2c-0.9,0.7-1.8,1.4-2.7,2.3
		c0.4-0.5,0.6-0.7,0.6-0.7c-0.5,0.5-1,1.1-1.4,1.7c-3.4,3.8-5.6,8.1-6,8.9l0,0c0.3-1.6,5-9.3,5-9.3c-2.7,3.2-4.7,7.4-5.7,9.4
		c-0.1,0-0.1,0-0.2,0c0.1-0.4,0.3-0.9,0.5-1.4c0.3-0.6,0.5-1.2,0.8-1.8c0.3-0.1,0.5-0.2,0.5-0.2c-0.2,0-0.3,0-0.5,0
		c0.1-0.3,0.3-0.6,0.4-0.9C44.9,13.1,45,13,45,13c-0.1,0.1-0.2,0.2-0.4,0.4c0.1-0.2,0.2-0.4,0.3-0.6c0.2,0,0.4-0.1,0.4-0.1
		c-0.1,0-0.2,0-0.4,0c0.2-0.5,0.4-0.9,0.6-1.3c0.7-0.1,1.1-0.2,1.1-0.2c-0.3-0.1-0.6-0.1-0.9-0.1c0.2-0.4,0.3-0.6,0.3-0.6
		c-0.1,0.2-0.3,0.4-0.4,0.6c-0.1,0-0.1,0-0.2,0c0.4-1,0.7-1.8,0.9-2.4c1.1-0.3,1.9-0.3,1.9-0.3c-0.6-0.2-1.2-0.3-1.8-0.3
		c0.2-0.3,0.3-0.5,0.3-0.5c-0.1,0.2-0.2,0.3-0.3,0.5c-1.1,0-2.3,0.2-3.3,0.5c2.2-1.2,4.4-1.5,4.4-1.5c-3.4,0.2-5.6,1.4-6.7,2.3
		C44.7,5.5,47.5,5,47.5,5c-3.3,0.6-5.6,3-5.6,3c2.6-3.2,7.5-3.6,7.5-3.6c-1.5,0-2.7,0.2-3.7,0.5c0.2-0.1,0.4-0.1,0.6-0.2
		c0,0-3.5,0.1-6.5,5.5c0.9-5.8,3.9-9.4,3.9-9.4c-3.8,4.6-5.1,11.9-5.1,11.9c-0.2-1,2-8.7,2-8.7c-2,4.4-2.7,9.9-2.7,9.9
		c0-1.5,0.9-10.1,0.9-10.1c-0.1,0.4-0.2,0.9-0.3,1.4c-0.4,0.9-0.7,1.8-1,2.7c0-0.5,0.1-0.8,0.1-0.8c-0.2,0.7-0.3,1.3-0.4,1.9
		c-1,4.5-0.6,8.9-0.6,8.9C36.1,17,36.3,9,36.3,9c-0.8,4.7-0.1,10.2-0.1,10.2c-0.2-0.6-0.6-2.8-0.9-4.9c0.1-0.5,0.1-0.8,0.1-0.8
		c-0.1,0.2-0.1,0.4-0.2,0.6c-0.1-1.4-0.2-2.5-0.2-2.5c0,0.4,0,0.8-0.1,1.3c-0.3-1.9-0.6-3.6-0.6-3.6c0,1.2,0.2,3.1,0.6,5.1
		c0,0.3,0,0.6,0,0.9c-0.1,0.4-0.1,0.8-0.2,1.3c-0.5-2-0.7-3.7-0.7-3.7c0,1.1,0.1,2.1,0.3,3c0,1.9,0.2,3.9,0.4,5.5
		c-0.1-0.4-0.3-0.7-0.4-1.1c-0.4-2.1-0.8-4.2-1.2-5.4c0,0,0.3,2,0.7,4.5c0,0,0,0,0-0.1c-0.2-0.7-0.4-1.5-0.7-2.3
		c0,0,0.2,0.7,0.4,1.8c-0.1-0.1-0.1-0.2-0.2-0.3c-0.4-1.4-0.7-2.4-0.7-2.4c0.1,0.5,0.2,1.2,0.4,2c-0.2-0.2-0.4-0.5-0.6-0.7
		c-0.4-1.8-0.8-3.4-1.2-4.5c0,0,0.4,1.8,0.8,4c-0.2-0.2-0.4-0.4-0.7-0.6c-0.2-0.3-0.3-0.7-0.5-1c0,0,0.1,0.3,0.3,0.8
		c-0.4-0.3-0.8-0.6-1.3-1c-0.2-0.5-0.5-1-0.8-1.5c-0.4-1.1-0.8-2.3-1.4-3.5c0,0,0.7,1.8,1.3,4.1c-0.4-0.6-0.8-1.1-1.2-1.6
		c-0.1-0.1-0.1-0.2-0.2-0.4c-0.8-2.3-1.6-4.7-2.3-6c0,0,0.7,2,1.4,4.3c-0.3-0.5-0.5-0.9-0.8-1.4c0,0,0.5,1,1.1,2.4
		c-0.1-0.1-0.2-0.2-0.3-0.3c0,0,0.1,0.2,0.4,0.5c0.1,0.2,0.2,0.4,0.2,0.5c0.2,0.5,0.3,1,0.5,1.6c-0.3-0.1-0.5-0.2-0.8-0.3
		c-1-2.1-2.4-4.5-4-6.6c0,0,1.9,3.5,3.3,6.4c-0.1,0-0.3-0.1-0.4-0.1c-1.6-2.7-4.2-6.6-7.6-9.2c0,0,0.8,0.7,2,2.1
		c0.8,1.2,2.6,4,3.7,6.9c-0.1,0-0.2,0-0.3,0c-1.5-2.4-5.2-8.4-7.2-10.6c0,0,5.5,8.4,6.7,10.6c0,0,0,0-0.1,0c-0.9-1.2-4.5-6-8.7-9.3
		c0,0,5.8,6.1,7.1,8.2c-0.1-0.1-0.3-0.2-0.4-0.3c-1.8-2-6.6-7.4-12.2-9.8c0,0,5.2,2.3,9.5,8c-6-3.6-9.6-2-9.6-2
		c2.1-0.3,4.2-0.1,6.1,0.6C12.9,8,9.5,7.9,5.3,10.1c0,0,5.3-2.2,10-0.4c-0.1,0-0.2,0-0.3,0c-1.4-0.4-4.3-0.9-7.3,0
		c0,0,1.8-0.5,5.4,0.1c-1.5,0.1-3.2,0.5-5.1,1.4c0,0,4.8-1.6,9.2,0c-0.5,0-1.2,0.1-2,0.2c-1.3,0-2.8,0.3-4.6,1c0,0,0.4-0.1,1.1-0.2
		c-1.1,0.4-2.2,1-3,1.8c0,0,3.1-1.5,6.9-2c1.6,0.1,3.5,0.3,5.1,1c0,0-6-0.5-9.2,2.1c-4,1.5-6.8,3.3-6.8,3.3s1.1-0.6,2.8-1.4l0,0
		c0,0-2,1.5-3.7,3.7c0,0,4-3.6,5.5-4.5c0,0-2.7,2.5-4.9,5.4c0,0,3.8-4.1,5.6-5.6c-0.5,0.5-1.3,1.7-1.4,3.8c0,0,0,0,0,0.1l0,0
		c-0.1,0.7,0,1.6,0.1,2.5c0,0-0.1-1.6,0.5-3.5c0.3-0.4,0.7-0.9,1.1-1.4c-0.2,0.9-0.4,2-0.3,3.4c0,0,0.1-2.2,1.2-4.3
		c0.2-0.2,0.4-0.3,0.6-0.5c-0.1,0.3-0.1,0.7-0.2,1.1c-0.4,0.6-0.8,1.2-1.1,2c0,0,0.4-0.6,1.1-1.4c0,0.4,0,0.9,0,1.3
		c-0.4,1-0.7,2-0.8,2.7c0,0,0.4-0.8,0.9-2c0.1,0.4,0.2,0.8,0.4,1.2c0,0-0.1-0.8-0.1-1.9c0.5-1.1,1.1-2.3,1.6-3.3
		c0.1-0.1,0.2-0.1,0.3-0.2c-0.1,0.3-0.2,0.6-0.3,1c-0.6,0.9-1.3,2.2-1.4,3.7c0,0,0.3-0.7,0.9-1.6c-0.2,1-0.3,2.2-0.4,3.3
		c0,0,0.4-2.4,1.3-4.8c0.2-0.4,0.5-0.7,0.8-1.1c-0.4,1.2-0.8,2.7-1,4.4c0,0,0.7-2.7,1.8-4.9c0.1,0,0.3-0.1,0.4-0.1
		c-0.4,1.2-0.8,2.7-0.8,4.2c-1,2.1-0.7,2.7-0.7,2.7s0.2-0.7,0.8-1.8c0,0.3,0.1,0.6,0.2,0.8c0,0,0-0.6,0.2-1.5
		c0.4-0.7,0.9-1.5,1.5-2.4c0.1,0,0.2,0,0.3,0c-0.2,0.4-0.5,0.9-0.7,1.4c-1.5,3.2-1.1,4-1.1,4s0.5-2,2.2-4.8c0-0.1,0.1-0.1,0.1-0.2
		c0,0.1,0.1,0.2,0.1,0.3c0,0.1,0.1,0.2,0.1,0.3c-0.5,0.8-1,1.7-1.2,2.5c0,0,0.4-0.7,1-1.7c-0.1,0.3-0.3,0.6-0.4,0.8
		c0,0,0.3-0.5,0.7-1.3c0.1,0.3,0.2,0.6,0.2,0.8c-0.3,0.5-0.5,1.1-0.6,1.6c0,0,0.2-0.5,0.7-1.2c0,0.1,0,0.3,0,0.4
		c-0.3,0.6-0.5,1.3-0.6,2C9,25.8,4.6,38.5,4.6,38.5s0.5-1.2,1.3-2.8l0,0c0,0-0.6,2.4-0.6,5.1c0,0,0.9-5.2,1.6-6.8
		c0,0-0.6,3.6-0.5,7.2c0,0,0.5-5.5,0.9-7.7c0,0.7,0.1,2.1,1.2,3.8c0,0,0,0,0,0.1c0,0,0,0,0-0.1c0.4,0.6,0.9,1.3,1.6,2
		c0,0-1.1-1.3-1.8-3.1c0-0.5,0-1.1,0-1.8c0.4,0.8,0.9,1.8,1.9,2.8c0,0-1.3-1.8-1.7-4.1c0-0.3,0.1-0.5,0.2-0.8c0.1,0.3,0.3,0.6,0.5,1
		c0,0.7,0.1,1.5,0.4,2.3c0,0-0.1-0.7,0-1.8c0.2,0.3,0.5,0.7,0.9,1c0.3,1,0.7,1.9,1.1,2.6c0,0-0.2-0.9-0.5-2.1
		c0.3,0.3,0.7,0.5,1.1,0.7c0,0-0.6-0.6-1.3-1.4c-0.3-1.2-0.6-2.5-0.8-3.5c0-0.1,0.1-0.2,0.1-0.4c0.1,0.3,0.2,0.6,0.4,1
		c0.1,1.1,0.4,2.5,1.2,3.7c0,0-0.2-0.7-0.3-1.8c0.5,0.9,1.1,1.9,1.8,2.9c0,0-1.2-2.1-2-4.5c0-0.4-0.1-0.8-0.1-1.3
		c0.4,1.1,1.1,2.6,2,4.1c0,0-1.6-3.7-1.9-6.2c0-0.1,0-0.3,0.1-0.4c0.3,1,1.1,3.4,2.4,5.2c0.1,0.5,0.3,0.9,0.4,1.3
		c-2.9,5.8-2.6,12.6-2.6,12.6s0-1.1,0.2-2.7l0,0c0,0,0.3,2.1,1.2,4.3c0,0-1-4.5-1-6c0,0,0.7,3.1,2,5.9c0,0-1.5-4.5-1.8-6.5
		c0.2,0.6,0.8,1.7,2.4,2.6l0,0l0,0c0.6,0.3,1.3,0.7,2.1,1c0,0-1.4-0.6-2.7-1.9c-0.2-0.4-0.4-0.9-0.6-1.4c0.6,0.6,1.5,1.1,2.7,1.6
		c0,0-1.8-1-3-2.6c0-0.2-0.1-0.5-0.1-0.7c0.2,0.2,0.5,0.4,0.8,0.6c0.3,0.5,0.6,1.1,1.1,1.7c0,0-0.3-0.6-0.7-1.4
		c0.3,0.2,0.7,0.4,1.1,0.5c0.6,0.7,1.3,1.3,1.8,1.7c0,0-0.5-0.6-1.2-1.5c0.4,0.1,0.8,0.2,1.3,0.2c0,0-0.7-0.2-1.6-0.7
		c-0.6-0.8-1.4-1.8-1.9-2.5c0-0.1,0-0.2,0-0.3c0.2,0.2,0.4,0.4,0.7,0.7c0.4,0.8,1.2,1.9,2.4,2.5c0,0-0.4-0.5-0.9-1.3
		c0.7,0.6,1.6,1.1,2.6,1.7c0,0-1.8-1.3-3.3-2.9c-0.2-0.3-0.4-0.7-0.5-1c0.8,0.7,1.9,1.7,3.2,2.5c0,0-2.7-2.4-3.8-4.3
		c0-0.1,0-0.2-0.1-0.3c0.6,0.7,2.1,2.4,3.9,3.3c1.3,1.6,1.9,1.7,1.9,1.7s-0.5-0.5-1.1-1.3c0.3,0.1,0.5,0.2,0.8,0.2
		c0,0-0.5-0.3-1.2-0.8c-0.5-0.7-1.1-1.7-1.6-2.8c0.1,0,0.1,0,0.2,0.1c0.3,0.5,0.7,1,1.1,1.5c1.9,2.4,2.8,2.5,2.8,2.5
		s-1.4-1.2-2.9-3.6c0-0.1-0.1-0.1-0.1-0.2c0.1,0,0.2,0,0.4,0c0.1,0,0.2,0,0.3,0c0.4,0.7,0.9,1.4,1.5,1.9c0,0-0.4-0.6-0.9-1.4
		c0.2,0.2,0.3,0.4,0.5,0.6c0,0-0.3-0.4-0.7-1.1c0.3,0,0.5,0.1,0.8,0.2c0.3,0.4,0.7,0.8,1.1,1.1c0,0-0.3-0.4-0.7-1
		c0.1,0,0.2,0.1,0.4,0.1c0.4,0.5,0.9,0.9,1.4,1.3c0,0-0.3-0.3-0.7-0.9c0.2,0.2,0.4,0.3,0.4,0.4c-0.1-0.1-0.3-0.4-0.7-0.8
		c-0.1-0.1-0.1-0.2-0.2-0.3c0.4,0.1,0.7,0.2,1,0.3c0.3,0.2,0.6,0.5,0.9,0.6c0,0-0.2-0.2-0.5-0.6c0.4,0.1,0.8,0.1,1.1,0
		c0,0-0.5,0-1.3-0.2c-0.1-0.1-0.1-0.2-0.2-0.3c-0.4-0.7-1-2-1.3-3.6c0.6,1.2,1.3,2.4,2.3,3.5c0,0-1.9-2.8-2.3-6.1l0,0
		c0.1,0.3,0.3,0.6,0.5,0.8c0,0-0.3-0.8-0.4-2c0,0,0,0,0-0.1c0.2,1.3,0.7,3.7,2,5.3c0.4,0.7,0.8,1.4,1.4,2.2c0,0-0.4-0.6-0.8-1.5
		c0.2,0.2,0.5,0.4,0.7,0.5c0,0-0.5-0.5-1.1-1.4c-0.4-1.3-0.7-2.9-0.5-4.6c0.5,1.6,1.4,3.9,2.5,5.9c-0.3,0.2-0.6,0.4-0.8,0.6
		c0,0,0.3-0.2,0.9-0.5c0,0.1,0.1,0.1,0.1,0.2c0,0,0-0.1-0.1-0.2c0.5-0.3,1.3-0.7,2.1-1.2c0,0,0,0.1,0.1,0.1
		c-0.4,0.3-0.8,0.6-1.2,0.9c0,0,0.5-0.3,1.3-0.8c0.2,0.2,0.3,0.4,0.4,0.5c-1.9,1.1-3.7,2.3-4.6,3.2c0,0,2.2-1.3,4.5-2.8
		c-0.8,0.7-1.6,1.5-2.3,2.3c0,0,1.3-1,2.8-2.3c0.1,0.2,0.2,0.3,0.3,0.4l-0.1,0.1c-1.3,1.1-2.6,2.4-3.8,3.7c-0.8,0.7-1.7,1.4-2.5,2.3
		c0,0,1.3-1.1,3.1-2.4c-0.4,0.5-0.7,1-1,1.5c-0.1,0.1-0.2,0.2-0.3,0.3c-1.8,1.4-3.5,2.9-4.4,3.9c0,0,1.5-1.2,3.3-2.6
		c-0.3,0.4-0.6,0.7-0.9,1.1c0,0,0.7-0.7,1.7-1.6c0,0.1-0.1,0.2-0.1,0.2s0.1-0.1,0.2-0.3c0.3-0.3,0.6-0.6,1-0.9
		c1.8-1.4,3.5-2.7,4.1-3.1c0,0-4.8,4.2-7.8,8.8c0,0,6-6.9,7.1-7.4c0,0-3.7,3.5-6.3,8c-0.4,0.6-0.8,1.3-1.2,2c0,0,0.2-0.3,0.5-0.7
		c-0.5,1-0.9,2-1.3,3c-0.3,0.5-0.6,1-0.8,1.4c0,0,5.8-8,7-9.2c0,0-3.6,5.2-5.3,10.4c0,0,3.9-8,4.9-8.8c0,0,0,0,0,0.1
		c-0.5,0.9-4.5,7.5-4.7,13.8c0,0,0.2-5.1,3.8-10.6c-1.5,6.7,1.4,9.3,1.4,9.3c-0.8-1.3-1.3-2.7-1.4-4.2c0.5,1.7,1.6,4.2,4.4,6.5
		c0,0-3.8-3.8-3.7-8.4c0,0,0,0,0,0.1c0.1,0.9,0.5,4,2.5,6.4c0,0-1.2-1.5-1.9-5c0.6,1.3,1.6,2.6,3,4c0,0-2.8-3.2-3.1-7.2
		c0.4,0.9,1.3,2.5,2.5,3.8c0.2,0.3,0.5,0.6,0.8,0.8c0,0,0,0-0.1-0.1c0.6,0.6,1.3,1.1,2.1,1.4c0,0-2-1.7-3.6-4.3
		c-0.7-1.5-1.2-3.4-1.2-5.4c0,0,1.6,5.3,5.1,7c0,0-4.2-4.3-4.9-9.3c0.2-0.4,0.3-0.8,0.5-1.1c0,0.8,0.2,2.4,1.5,4.5
		c0.2,0.7,0.6,1.5,1.1,2.2c0,0-0.2-0.5-0.4-1.2c0.6,0.7,1.3,1.5,2.2,2.3c0,0-1.4-1.5-2.4-3.3c-0.3-1.3-0.5-3-0.4-4.8
		c0.2,1.6,0.7,3.7,2.2,6c0,0-1.1-2.1-1.3-4.7c0.4,1.7,1.2,3.7,2.7,4.9c0,0-2.3-3.8-2.6-8c0.1-0.5,0.2-0.9,0.4-1.4
		c0,0-0.7,3.1,1.6,6.8c0,0-1.8-4.8-0.7-8.9c0,0,0.3,5.5,3.2,8c0,0-1.8-2.9-2.4-6.6c0.5,1.6,1.5,3.7,3.3,5.6c0,0-3.3-5-2.6-8.9
		c0,0,0.4,4,2.8,6.8c0,0-0.5-0.8-0.9-2c-0.1-0.2-0.6-1.9-0.5-3.9c0.4,1.1,1.1,2.5,2.1,3.7c0.3,5.4,0.6,12.8,0.6,22.2
		c0,18.6-5.5,34.6-7.3,39.3c-13.5,0.9-36.5,4-23,4.8c0,0,12.2,0.2,23-0.1s26.3,0.1,35.7,0.1c9.4-0.1,3.1-2.8-8.6-3.4
		c-8.5-0.4-10.8-1.3-16-1.6c0.1-0.5,0.3-1,0.4-1.5c0.1,0,0.1,0,0.1,0c0.1,0,0.1-0.1,0-0.2c1.4-5,3.1-9.5,5.2-13.5c0.2,0,0.2,0,0-0.1
		c4.5-8.8,10.2-15.3,14.9-19.7c0,0.6,0.1,1.2,0.2,1.8c0,0,0-0.9,0.3-2.2c0.9-0.8,1.8-1.6,2.7-2.3c-0.3,0.7-0.5,1.5-0.6,2.3
		c0,0,0.5-1.4,1.6-3.1c0.6-0.5,1.2-0.9,1.7-1.3c0.1,0,0.3-0.1,0.6-0.2c0.1,0.5,0.1,0.8,0.1,0.8c0-0.3,0-0.6,0-0.9
		c0.2-0.1,0.5-0.2,0.8-0.3c0.1,0.5,0.2,0.8,0.2,0.8c0-0.3,0-0.6-0.1-0.9c0.7-0.3,1.5-0.6,2.2-0.9c-0.3,0.3-0.7,0.7-1,1.2
		c-0.1,0.1-0.2,0.2-0.3,0.4c0,0,0.1-0.1,0.2-0.2c-0.3,0.5-0.6,1.1-0.8,1.8c0,0,0.6-1.4,2-2.6c0.4-0.2,0.9-0.5,1.4-0.6
		c-0.6,0.5-1.4,1.3-1.9,2.7c0,0,0.2-0.4,0.7-1c0.2-0.1,0.9-0.6,1.8-1c0,0.1-0.1,0.1-0.1,0.2c-0.4,0.2-0.8,0.6-1.3,1.1
		c-0.2,0.1-0.4,0.3-0.7,0.5c0,0,0.2-0.1,0.5-0.2c-0.3,0.3-0.6,0.7-0.9,1.2c0,0,0.6-0.8,1.6-1.5c0.1,0,0.2-0.1,0.3-0.1
		c-0.1,0.2-0.1,0.4-0.2,0.6c-0.3,0.4-0.4,0.7-0.4,0.7c0.1-0.1,0.2-0.2,0.3-0.3c-0.1,0.3-0.1,0.6-0.1,1c0,0,0.1-0.2,0.2-0.5l0,0l0,0
		c0,0,0.1-0.1,0.3-0.3c0.1-0.1,1-0.5,2.1-0.6c-0.1,0.2-0.3,0.3-0.4,0.5c-0.4,0.4-0.8,0.7-1.2,0.9c-0.8,0.1-1.3,0.2-1.3,0.2
		c0.4,0,0.8,0,1.1,0c-0.6,0.4-1,0.5-1,0.5c0.4-0.1,0.9-0.4,1.3-0.6c0.2,0,0.4-0.1,0.6-0.1c0,0.1-0.1,0.3-0.1,0.4
		c-0.1,0.1-0.2,0.2-0.3,0.3c-0.4,0.1-0.7,0.2-0.7,0.2c0.2,0,0.3,0,0.5,0c-0.1,0.1-0.2,0.1-0.2,0.1c0.1,0,0.2-0.1,0.3-0.1
		c0.2,0,0.4,0,0.5-0.1c-0.1,0-0.1,0.1-0.1,0.1c-0.9,0.3-0.9,0.6-0.9,0.6c0.2-0.1,0.4-0.2,0.7-0.3c-0.1,0.2,0,0.2,0,0.2
		c0.1-0.1,0.2-0.2,0.2-0.3c0.4,0,0.8,0,1.5-0.1c0.2,0,0.4,0,0.5-0.1c-0.5,0.4-1.1,0.6-1.8,0.7c-0.3,0-0.6,0.1-0.9,0.2
		c-2.5-0.6-2.6,0.1-2.6,0.1s0.2-0.5,2,0.1c-1.1,0.4-1,0.7-1,0.7s0-0.4,1.3-0.6c0.2,0.1,0.5,0.1,0.8,0.2c-0.1,0-0.1,0-0.2,0
		c-0.6,0-1.1-0.1-1.1-0.1c0.6,0.2,1.2,0.4,1.7,0.5c-0.1,0-0.2,0.1-0.3,0.1c-0.2,0-0.4,0.1-0.5,0.1c-0.2,0-0.5,0-0.7-0.1
		c-2.6-0.4-3.7,0.3-3.7,0.3s0.9-0.5,3.7,0c-1.6,0.6-2.1,1.2-2.1,1.2s0.5-0.6,2.5-1.1c0.1,0,0.2,0,0.3,0.1c1,0.2,1.9,0.2,2.8,0
		c-0.4,0.3-0.7,0.5-1,0.7c-1.3,0.5-2.4,0.6-2.4,0.6c0.4,0,0.8,0,1.2,0c-1.4,0.3-2.5,0.4-2.5,0.4c1,0,2-0.1,3-0.3
		c-0.5,0.3-0.7,0.4-0.7,0.4c0.3-0.1,0.7-0.3,1-0.5c1-0.2,1.8-0.4,2.6-0.6c-0.1,0.1-0.2,0.2-0.3,0.3c-1.1,0.8-2.2,1.2-3.3,1.5
		c-1,0-1.6-0.1-1.6-0.1c0.2,0.1,0.5,0.2,0.7,0.3C71.1,71,70.5,71,70.5,71c0.8,0.1,1.6,0.1,2.3,0c0.2,0,0.4,0,0.5,0
		c-0.1,0-0.1,0-0.1,0h0.1c0.9,0,1.8-0.2,2.6-0.5c-0.6,0.3-1.1,0.6-1.4,0.7c-1.9,0.5-3.5,0.5-3.5,0.5c0.8,0.1,1.7,0.2,2.5,0.1
		c0.1,0.1,0.2,0.1,0.3,0.2c-1,0.3-1.9,0.4-2.4,0.5c-0.1,0-0.2,0-0.3,0c-0.6-0.5-0.8-0.8-0.8-0.8c0.1,0.3,0.3,0.5,0.5,0.8
		c-0.5,0-0.7-0.1-0.7-0.1c0.3,0.1,0.6,0.2,0.9,0.3c0.2,0.2,0.5,0.4,0.7,0.6c-0.1,0-0.2,0-0.3,0c-0.4-0.1-0.8-0.1-0.9-0.1
		c0.1,0,0.2,0,0.5,0.1c-0.6,0-1-0.1-1-0.1c0.5,0.2,1.1,0.3,1.6,0.4c0.1,0.1,0.2,0.1,0.3,0.2c-0.7,0-1.1,0-1.1,0
		c0.4,0.1,0.9,0.2,1.3,0.2c0.2,0.1,0.3,0.3,0.5,0.5c-0.7,0-1.2,0-1.2,0c0.2,0,0.5,0.1,0.7,0.1c-0.9,0.1-1.5,0.1-1.5,0.1
		c0.7,0.2,1.4,0.2,2.2,0.1c0,0.1,0.1,0.1,0.2,0.2s0.1,0.2,0.2,0.2c-0.1,0-0.1,0-0.2,0c-2.5,0.1-4.2-0.3-4.2-0.3s0.4,0.6,3.2,0.8
		c0.6,0,1.1,0.1,1.7,0l0.1,0.1C72.7,76,71.7,76,70.9,76c-0.7-0.3-1.2-0.5-1.2-0.5c0.2,0.2,0.4,0.3,0.5,0.5c-1,0-1.5-0.2-1.5-0.2
		s0.3,0.4,2.2,0.6c1.6,0.9,3.6,1.2,4.4,1.3c-0.1,0-0.2,0.1-0.3,0.1c-2,0.1-5.1-0.7-5.1-0.7c1.3,0.6,2.5,0.9,3.5,1.1
		c-0.3,0-0.7,0.1-1,0.1c-2-0.4-3.8-1-3.8-1c0.9,0.5,1.7,0.8,2.5,1.1c-0.8,0-1.4,0-1.4,0c1.1,0.5,2.2,0.6,3.1,0.5
		c0.3,0.1,0.6,0.1,0.8,0.2c-0.1,0.1-0.2,0.1-0.3,0.2c-0.9,0-1.9-0.1-2.9-0.2c-0.8-0.4-1.3-0.8-1.3-0.8c0.2,0.3,0.5,0.6,0.7,0.8
		c-1-0.1-1.7-0.1-1.7-0.1c0.5,0.2,1.3,0.4,2.2,0.5c0.3,0.2,0.6,0.4,0.9,0.6c-0.8,0.2-1.4,0.2-1.4,0.2c0.7,0.1,1.3,0.1,1.8,0
		c0.3,0.1,0.6,0.2,0.8,0.3c-0.2,0.1-0.4,0.2-0.6,0.3C70,80.8,68.4,80,68.4,80c0.9,0.7,1.8,1,2.5,1.2c-0.5,0.1-1,0.2-1.4,0.2
		c-1.5-0.3-2.7-1-2.7-1c0.6,0.5,1.2,0.8,1.8,1.1l0,0c0,0,0,0,0.1,0c1.5,0.7,2.6,0.6,3.1,0.5c-1.7,0.7-5.8,1.8-5.8,1.8
		c2.8-0.4,5.5-1.4,5.5-1.4l0,0c-1.1,0.7-5,2.2-5,2.2c2.1-0.4,3.8-1.2,3.8-1.2c-1.2,0.9-2,1.5-2,1.5s3.8-2.2,6.8-5.8
		c0.4-0.1,0.8-0.1,1.2-0.2c0.4,0.1,0.7,0.1,1.1,0.2c-0.7,0.5-1.2,0.7-1.2,0.7c0.7-0.2,1.2-0.4,1.7-0.7c0.3,0,0.6,0,0.9,0
		c-0.1,0.2-0.3,0.3-0.4,0.4c-1.7,0.6-3.5,0.5-3.5,0.5c1.1,0.2,2.1,0.2,2.8,0.1c-0.4,0.3-0.8,0.5-1.2,0.7c-1.6,0.3-2.9,0.1-2.9,0.1
		c0.8,0.2,1.5,0.3,2.1,0.3l0,0c0,0,0,0,0.1,0c1.7,0.1,2.6-0.4,3.1-0.7c-1.3,1.2-4.6,3.7-4.6,3.7c2.4-1.4,4.5-3.3,4.5-3.3
		c-0.7,1.1-3.7,3.8-3.7,3.8c1.8-1.1,3.1-2.5,3.1-2.5c-0.7,1.3-1.2,2-1.2,2s7.4-9.6,3.4-17.5c-1-2-2.4-3.5-3.7-4.5
		c-0.6-0.9-1.4-1.7-2.1-2.2c0.8,0.2,1.5,0.6,2.1,0.9c1.2,0.9,2,1.9,2,1.9c-1.4-2.5-4.3-3.9-4.3-3.9c3.1,0.5,5.9,4.3,5.9,4.3
		c-1-1.9-2.3-3.1-3.4-3.9c2.6,1.4,4.4,3.6,4.4,3.6c-1-2.8-5.1-4.5-5.1-4.5c3.4,0.4,6.4,2.9,6.4,2.9c-2.1-2.6-4.6-3-4.6-3
		c0.4,0,0.7,0,1,0.1c3.1,1.4,5.4,4.1,5.4,4.1c-0.5-1.5-1.9-2.6-3.1-3.4c2,0.9,3.4,2.3,3.4,2.3c-1.2-1.6-2.5-2.5-3.7-3.1
		c1.3,0.4,2.4,1,3.3,1.5c1.1,1.2,1.8,2.6,1.8,2.6c-0.3-0.8-0.7-1.5-1.1-2.1c0.5,0.4,0.8,0.6,0.8,0.6c-0.4-0.6-0.9-1-1.4-1.4
		c-1.1-1.4-2.2-2-2.8-2.3c0.2,0,0.4,0,0.5,0c3.5,1.8,5.5,5.8,5.5,5.8c-0.3-2.9-3.8-5.5-3.8-5.5c3.2,1.1,5.5,4.3,5.5,4.3
		c-1.4-3-3.8-4-3.8-4c0.5,0.1,0.9,0.3,1.4,0.5c2.4,2.2,3.5,5.1,3.5,5.1c-0.1-1.5-0.9-3-1.8-4.1c1.7,1.4,2.7,3,2.7,3
		c-1.2-2.7-2.9-4-4-4.7c4.5,1.9,5.8,4,5.8,4c-1.5-2.5-4.3-3.6-4.3-3.6C92.7,58.4,94.6,62.3,94.6,62.3z M76.9,77.6
		c-0.2,0-0.5-0.1-0.7-0.1c0.1-0.1,0.1-0.1,0.2-0.2c1,0,1.9-0.4,2.5-0.7c0.3,0,0.6-0.1,0.8-0.1c-0.1,0.1-0.1,0.2-0.2,0.2
		C78.8,77,77.8,77.3,76.9,77.6z M26.9,38.4c0.5-0.5,1-1,1.6-1.5c0,0.1,0,0.1,0.1,0.1c-0.4,0.3-0.7,0.7-1.1,1.1
		C27.3,38.2,27.1,38.3,26.9,38.4z M42.5,68c0.3-0.1,0.5-0.2,0.8-0.4c0,0.4,0,0.9,0,1.3c0,0,0-0.6,0.1-1.4c0.8-0.3,1.6-0.6,2.6-0.9
		c-4.9,3.7-4.6,7.1-4.6,7.1c0.4-1.8,1.2-3.4,2.4-4.7c-0.9,1.4-2,4.2-1.5,8.1c0,0-0.2-4.9,2.7-8.2c0,0.1-0.1,0.1-0.1,0.2
		c-0.7,1-2.1,3.2-2.2,5.9c0,0,0.1-1.7,1.7-4.4c-0.3,1.2-0.5,2.8-0.4,4.5c0,0,0.1-4.4,2.8-7.4c-0.1,0.4-0.3,1-0.4,1.7
		c-0.3,1-0.6,2.4-0.5,4c0,0,0-0.4,0.2-1c0,1,0.2,2,0.6,3c0,0-0.3-2.9,0.4-6.1c0.5-1.3,1.3-2.7,2.4-3.8c0,0-2.4,4.9-1,8.3
		c0,0-0.1-5.5,2.4-9.5c0.3-0.2,0.5-0.3,0.7-0.5c0,0.1,0.1,0.1,0.1,0.1c-0.5,0.7-1.1,1.9-1.4,3.6c-0.3,0.7-0.5,1.4-0.7,2.3
		c0,0,0.2-0.5,0.6-1.2c-0.1,0.9-0.1,1.9,0,3c0,0,0-1.9,0.5-4c0.7-1.1,1.7-2.6,3-3.7c-1,1.3-2,3.2-2.5,5.8c0,0,0.6-2.1,2.1-4.2
		c-0.8,1.5-1.5,3.4-1.3,5.2c0,0,0.9-4.2,3.5-7.5c0.4-0.3,0.8-0.6,1.3-0.8c0,0-2.6,1.8-3.4,5.9c0,0,1.9-4.6,5.5-6.9
		c0,0-2.9,3.4-3.1,6.8c-0.9,0.9-1.9,1.8-2.7,2.7l0,0c-3.1,3.2-5.7,6.5-7.8,9.6c-0.1-0.1-0.2-0.1,0,0l0,0c-5.7,8.3-8.7,15.9-10,19.7
		c2.6-9.4,3.6-20.4,3.9-30.8C40,69.3,41.1,68.7,42.5,68c-0.1,0.2-0.1,0.4-0.1,0.6C42.3,68.7,42.4,68.4,42.5,68z M72.2,57.4
		c-0.3,0.2-0.6,0.4-0.7,0.6l0,0c0.1-0.1,0.3-0.2,0.5-0.4C72.1,57.5,72.1,57.4,72.2,57.4z M75.5,57C75.6,57,75.6,57,75.5,57
		c0.2-0.1,0.6-0.4,1-0.6C76.2,56.7,76,56.9,76,57C75.8,57,75.6,57,75.5,57z M75.3,56.5c0.9-0.5,1.7-0.9,2.5-1.3c0,0-0.1,0.1-0.2,0.1
		C76.8,55.7,76,56.1,75.3,56.5z M60,64.8c0.4-0.6,0.9-1.3,1.5-1.9c-0.1,0.3-0.3,0.6-0.4,1C60.8,64.2,60.4,64.5,60,64.8z M57.8,66.7
		c0.4-1.1,0.9-2.3,1.6-3.4c0,0.3,0,0.4,0,0.4s0.1-0.1,0.1-0.4c0.5-0.7,1.1-1.4,1.7-1.9c0,0-1.4,1.8-2.1,4.2
		C58.7,65.9,58.2,66.3,57.8,66.7z M53,64.1c0,0-0.5,0.3-1.1,1C52.2,64.7,52.5,64.4,53,64.1z M51.8,64C51.8,64,51.8,63.9,51.8,64
		c0-0.2,0.1-0.2,0.2-0.3c0,0,0,0,0.1,0C52,63.7,51.9,63.9,51.8,64z M44.6,61.3c0,0.1,0,0.4,0.1,0.7c0,0.5,0,1,0,1.6
		C44.6,62.9,44.5,62.1,44.6,61.3L44.6,61.3z M55.8,51.2c0.5-0.6,1.4-1.8,2.6-3c-0.8,1.1-1.5,2.3-2,3.6c-0.2,0-0.4,0-0.5,0.1h-0.1
		c0-0.1-0.1-0.2-0.1-0.4C55.7,51.4,55.7,51.3,55.8,51.2z M57.6,45.8c-0.7,0.8-1.5,1.8-2.2,2.9c0-0.2,0-0.5,0-0.7
		C56,47.2,56.8,46.4,57.6,45.8z M45.2,65.6L45.2,65.6L45.2,65.6L45.2,65.6z M45.1,64.6c0-0.2,0-0.4,0-0.6c0.2,0,0.3-0.1,0.5-0.1
		c0.1,0.2,0.2,0.4,0.4,0.6c-0.3,0.1-0.5,0.1-0.8,0.2C45.1,64.7,45.1,64.6,45.1,64.6z M45.8,60.4c0,0,0.1,0,0.2,0
		c0,0.1,0,0.2-0.1,0.4C45.9,60.7,45.8,60.6,45.8,60.4z M47,60.7c0,0.4,0.1,0.8,0.2,1.3c-0.1,0-0.2,0-0.2,0c-0.1-0.5-0.2-1.1-0.3-1.5
		c0.1,0,0.2,0,0.3,0C46.9,60.6,47,60.6,47,60.7z M53.1,61.8c0-0.1,0-0.1,0-0.2l0,0C53.1,61.7,53.1,61.7,53.1,61.8L53.1,61.8z
		 M61.8,56.8c-0.1,0-0.2,0-0.3-0.1c0.1-1,0.3-2.1,0.7-3C62.3,54.9,62.1,56,61.8,56.8z M62.8,55c0.1-0.3,0.2-0.6,0.4-0.8
		c0.1,0.3,0.1,0.6,0.2,0.9c0,0.1-0.1,0.1-0.1,0.2c0,0,0,0,0.1-0.1c0.1,0.7,0.1,1.5,0,2.1c-0.3-0.1-0.7-0.2-1.1-0.2
		c0-0.2,0.1-0.4,0.1-0.6C62.6,55.9,62.7,55.4,62.8,55z M60.6,60c-0.1,0-0.1,0-0.2,0l0,0C60.5,60,60.5,60,60.6,60z M56.3,60
		c-0.2,0-0.4-0.1-0.6-0.1l0,0c0.3,0,0.7,0,1,0c0,0,0,0.1,0,0.2C56.6,60,56.4,60,56.3,60z M61.2,57c0,0.2,0,0.4,0,0.7h-0.1
		C61.1,57.4,61.1,57.2,61.2,57C61.1,56.9,61.1,56.9,61.2,57z M62.1,57.2c0,0.2,0,0.4,0,0.6c-0.1,0-0.3-0.1-0.4-0.1
		C61.8,57.5,61.9,57.4,62.1,57.2C62,57.2,62,57.2,62.1,57.2z M67,58.9L67,58.9c0.1,0,0.1,0,0.2,0C67.2,59,67.2,59,67,58.9z
		 M66.8,58.9L66.8,58.9C66.7,58.9,66.7,58.8,66.8,58.9C66.8,58.8,66.8,58.8,66.8,58.9C66.8,58.8,66.8,58.8,66.8,58.9z M57,59.3
		c0-0.1,0-0.3,0-0.5c0.4,0,0.9,0,1.3,0.1c0.1,0.2,0.1,0.3,0.2,0.4c-0.2,0-0.5,0-0.7,0C57.6,59.3,57.3,59.3,57,59.3z M58.5,56.7
		C58.5,56.7,58.5,56.6,58.5,56.7c0.1,0.1,0.2,0.3,0.2,0.5c-0.1,0-0.1,0-0.2,0C58.5,57,58.5,56.8,58.5,56.7z M65.4,55.4
		c0,0.1,0,0.1,0,0.2c-0.2,0.1-0.3,0.3-0.4,0.4c0.1-0.3,0.2-0.6,0.2-0.8C65.3,55.3,65.4,55.4,65.4,55.4z M66.2,57.2
		c-0.2,0.1-0.4,0.2-0.5,0.4c0.1-0.5,0.2-0.9,0.2-1.2c0.1,0,0.2-0.1,0.2-0.1C66.2,56.6,66.2,56.9,66.2,57.2z M60.2,59.2
		c0-0.1-0.1-0.2-0.1-0.3l0,0c0.7,0.1,1.3,0.2,1.9,0.4C61.4,59.2,60.8,59.2,60.2,59.2z M64.2,58.6c0,0.1,0,0.1,0,0.2
		c-0.2-0.1-0.4-0.1-0.6-0.2c0,0,0-0.1,0.1-0.1C63.9,58.5,64.1,58.5,64.2,58.6z M63.5,58.5L63.5,58.5L63.5,58.5L63.5,58.5z
		 M61.3,58.5c-0.2,0-0.3,0-0.4,0c0-0.1,0.1-0.2,0.1-0.4c0.1,0,0.2,0,0.3,0.1C61.2,58.3,61.2,58.4,61.3,58.5z M61.4,58.3
		c0.2,0.1,0.5,0.1,0.7,0.2v0.1c-0.2,0-0.5,0-0.8-0.1C61.4,58.5,61.4,58.4,61.4,58.3z M60.6,58.5c-0.2,0-0.5,0-0.7,0
		c-0.1-0.2-0.1-0.4-0.2-0.6c0.3,0.1,0.6,0.1,0.9,0.2C60.7,58.2,60.7,58.4,60.6,58.5z M62.2,58.5c0.2,0,0.3,0.1,0.5,0.1
		C62.5,58.6,62.4,58.6,62.2,58.5L62.2,58.5z M59.3,57.8c0,0.2,0.1,0.5,0.2,0.7h-0.1C59.4,58.2,59.3,58,59.3,57.8L59.3,57.8z
		 M59.2,58.8c0.1,0.1,0.1,0.2,0.2,0.4c-0.2,0-0.4,0-0.5,0c0-0.1-0.1-0.3-0.1-0.4C58.9,58.8,59.1,58.8,59.2,58.8z M59.5,58.8
		c0.1,0,0.1,0,0.2,0c0,0.1,0.1,0.1,0.1,0.2c0,0,0,0.1,0.1,0.1c-0.1,0-0.2,0-0.3,0S59.5,59,59.5,58.8z M62.8,59.1L62.8,59.1
		C62.8,59.1,62.7,59.1,62.8,59.1L62.8,59.1z M62.9,59.1c0.5,0.1,0.9,0.1,1.3,0.2v0.1C63.8,59.3,63.3,59.2,62.9,59.1
		C62.8,59.1,62.9,59.1,62.9,59.1z M64.4,58.8c0-0.1,0-0.1,0.1-0.2c0.2,0,0.3,0.1,0.5,0.1v0.1C64.7,58.9,64.6,58.8,64.4,58.8z
		 M64.6,58.3L64.6,58.3c0.2-0.2,0.3-0.2,0.5-0.3c0,0,0,0,0.1,0c0,0.1-0.1,0.2-0.1,0.4C64.9,58.4,64.7,58.4,64.6,58.3z M64.6,58.2
		c0-0.1,0-0.1,0-0.2c0.1,0,0.2,0.1,0.2,0.1C64.8,58.1,64.7,58.1,64.6,58.2z M65.4,58.2c0.2,0.1,0.4,0.2,0.6,0.2c0,0.1,0,0.2,0,0.2
		c-0.2-0.1-0.5-0.1-0.7-0.2C65.3,58.4,65.4,58.3,65.4,58.2z M65.6,57.9c0.2-0.1,0.4-0.2,0.6-0.3c0,0.2,0,0.3,0,0.5
		C65.9,58,65.8,57.9,65.6,57.9z M66.6,57.8c0,0.2,0.1,0.3,0.1,0.5c0,0-0.1,0-0.2-0.1C66.6,58.1,66.6,58,66.6,57.8z M66.1,56
		c0,0-0.1,0.1-0.2,0.1c0-0.1,0-0.2,0-0.2C66,55.9,66,56,66.1,56z M65.4,55.9c0,0.2,0,0.4,0,0.5c-0.4,0.2-0.6,0.3-0.6,0.3
		c0.2-0.1,0.4-0.1,0.6-0.2c0,0.4-0.1,0.8-0.2,1.2c-0.2-0.1-0.3-0.1-0.5-0.2c0.1-0.4,0.1-0.8,0.1-1.1c0-0.1,0.1-0.2,0.1-0.3
		C65.1,56.1,65.3,56,65.4,55.9z M64.4,57.5C64.3,57.5,64.3,57.5,64.4,57.5L64.4,57.5C64.4,57.4,64.4,57.4,64.4,57.5z M64.1,57.7
		c0.1,0,0.2,0,0.2,0.1c0,0.2,0,0.3,0,0.5c-0.2,0-0.3-0.1-0.5-0.1v-0.1C63.9,58,64,57.9,64.1,57.7z M63.2,58.4L63.2,58.4L63.2,58.4
		C63.2,58.3,63.3,58.4,63.2,58.4C63.3,58.4,63.3,58.4,63.2,58.4z M63.2,58.4c-0.2-0.1-0.4-0.1-0.5-0.2C62.8,58.3,63,58.3,63.2,58.4
		L63.2,58.4z M58.8,57.4L58.8,57.4c-0.1,0-0.1,0-0.2,0c0,0,0,0,0-0.1C58.6,57.4,58.7,57.4,58.8,57.4z M58.8,57.7
		c0.1,0.2,0.1,0.5,0.2,0.7c-0.1,0-0.2,0-0.4-0.1c0-0.2-0.1-0.5-0.1-0.7C58.7,57.7,58.7,57.7,58.8,57.7z M58.1,58.2
		c-0.4-0.1-0.7-0.1-1.1-0.2c0-0.2,0-0.4,0.1-0.7c0.2,0,0.5,0.1,0.8,0.1C58,57.8,58.1,58,58.1,58.2z M57.8,58.5c-0.2,0-0.5,0-0.7,0
		v-0.1C57.3,58.4,57.5,58.4,57.8,58.5z M64.2,59.4C64.2,59.3,64.3,59.3,64.2,59.4c0.2,0,0.3,0,0.4,0.1
		C64.6,59.4,64.5,59.4,64.2,59.4C64.3,59.4,64.3,59.4,64.2,59.4z M65.1,58.9C65.1,58.9,65.1,58.8,65.1,58.9c0.4,0,0.7,0,0.9,0.1l0,0
		C65.7,59,65.5,59,65.1,58.9z M66.4,58.8c0-0.1,0-0.1,0-0.2h0.1C66.5,58.7,66.5,58.8,66.4,58.8C66.5,58.8,66.4,58.8,66.4,58.8z
		 M66.8,57.2c0.1,0,0.1-0.1,0.2-0.1c0.1,0.2,0.1,0.4,0.2,0.6c-0.1,0.1-0.1,0.2-0.2,0.4C66.9,57.8,66.8,57.5,66.8,57.2z M66.7,56.7
		L66.7,56.7C66.8,56.8,66.7,56.8,66.7,56.7C66.7,56.8,66.7,56.7,66.7,56.7z M63.7,57.3L63.7,57.3c0-0.2,0-0.5,0-0.7
		C63.7,56.8,63.7,57,63.7,57.3z M63.7,57.6L63.7,57.6c-0.1,0.2-0.1,0.4-0.2,0.5h-0.1C63.5,57.9,63.5,57.8,63.7,57.6
		C63.5,57.6,63.6,57.6,63.7,57.6z M63.2,58.1c-0.3-0.1-0.7-0.1-1-0.2c0-0.2,0-0.4,0-0.6c0.3,0.1,0.7,0.2,1.1,0.3
		C63.3,57.7,63.2,57.9,63.2,58.1z M61.5,57.7C61.4,57.7,61.4,57.7,61.5,57.7c-0.1-0.2,0-0.4,0-0.7c0.1,0,0.2,0,0.2,0.1
		C61.6,57.3,61.5,57.5,61.5,57.7z M60.6,57.5c-0.3-0.1-0.7-0.1-1-0.2c0-0.2,0-0.5,0-0.7c0.2,0,0.5,0.1,0.9,0.2
		C60.6,57.1,60.6,57.3,60.6,57.5z M58.5,56.7c0-0.3,0-0.5,0-0.7C58.5,56.1,58.6,56.3,58.5,56.7C58.5,56.6,58.5,56.6,58.5,56.7z
		 M57.9,57c-0.2,0-0.4-0.1-0.7-0.1c0.1-0.7,0.3-1.6,0.6-2.4C57.8,55.3,57.7,56.1,57.9,57z M57.9,57.3L57.9,57.3
		c-0.3,0.1-0.5,0.1-0.8,0.1c0-0.1,0-0.2,0-0.2C57.4,57.2,57.7,57.2,57.9,57.3z M56.8,58.3c0,0.1,0,0.1,0,0.2l0,0
		C56.8,58.4,56.8,58.4,56.8,58.3z M56.6,58.5c-0.4,0-0.7,0-1.1,0.1c0-0.1,0-0.3,0.1-0.5c0.3,0.1,0.7,0.1,1,0.2
		C56.6,58.3,56.6,58.4,56.6,58.5z M56.9,58.7c0,0.2,0.1,0.4,0.1,0.5c-0.1,0-0.1,0-0.2,0C56.8,59.1,56.8,58.9,56.9,58.7
		C56.8,58.7,56.8,58.7,56.9,58.7z M54.6,60.1L54.6,60.1C54.5,60.1,54.5,60.1,54.6,60.1L54.6,60.1z M54.4,60
		C54.4,60.1,54.4,60.1,54.4,60c-0.2,0.1-0.4,0.1-0.6,0.1c0,0,0,0,0-0.1C53.9,60,54.1,60,54.4,60C54.3,60,54.3,60,54.4,60z
		 M53.3,60.2c-0.1,0-0.3,0-0.4,0C53,60.2,53.1,60.1,53.3,60.2C53.3,60.1,53.3,60.1,53.3,60.2z M51.8,60.2c-0.1,0-0.2,0-0.2,0.1
		c0-0.1,0-0.2,0-0.3C51.6,60.1,51.7,60.1,51.8,60.2z M53.1,59.9c-0.1,0-0.2,0-0.3,0.1v-0.1C52.9,59.9,53,59.9,53.1,59.9z M53.4,60.8
		c0,0.1,0,0.1,0.1,0.2c-0.1-0.1-0.1-0.1-0.2-0.2C53.4,60.8,53.4,60.8,53.4,60.8z M53.8,60.9L53.8,60.9c0.3-0.1,0.5-0.1,0.8-0.1
		c0,0.1,0,0.2,0.1,0.2c-0.3,0-0.5,0-0.8,0C53.8,61.1,53.8,61,53.8,60.9z M54.3,60.5c0.1,0,0.1,0,0.2,0l0,0
		C54.4,60.5,54.4,60.5,54.3,60.5z M54.6,60.5c0.3,0,0.5,0,0.8,0v0.1C55.1,60.6,54.9,60.6,54.6,60.5L54.6,60.5z M55.5,60.5
		c0.1,0,0.2,0,0.3,0l0.1,0.1C55.8,60.6,55.6,60.6,55.5,60.5C55.5,60.6,55.5,60.5,55.5,60.5z M67,58.4L67,58.4
		c0.1-0.2,0.2-0.3,0.2-0.5c0.1,0.2,0.1,0.4,0.2,0.7C67.3,58.6,67.1,58.5,67,58.4z M61.1,56.7c0-0.5,0-1,0-1.4
		c0.1-0.1,0.2-0.3,0.3-0.5C61.3,55.4,61.2,56.1,61.1,56.7L61.1,56.7z M60.5,56.2c0,0.2,0,0.4,0,0.5c-0.3-0.1-0.6-0.1-0.9-0.1
		c0-0.5,0.1-1.1,0.2-1.5c0.3-0.5,0.6-1,0.9-1.7C60.6,54,60.4,55.2,60.5,56.2z M56.6,56.8c-0.3,0-0.5-0.1-0.7-0.1
		c0.2-0.8,0.5-1.6,0.9-2.3C56.7,55.1,56.7,55.9,56.6,56.8z M56.6,57c0,0.3,0,0.7,0,1c-0.3,0-0.7-0.1-1-0.1c0-0.3,0.1-0.7,0.2-1
		C56.1,56.9,56.4,56.9,56.6,57z M55.6,58.7c0.3,0,0.7,0,1.1,0c0,0.2,0,0.4,0,0.6c-0.4,0-0.7,0-1.1,0c0-0.1,0-0.3-0.1-0.4
		C55.6,58.8,55.6,58.7,55.6,58.7z M54.5,59.6L54.5,59.6c0.1,0,0.1,0,0.2,0C54.6,59.6,54.6,59.6,54.5,59.6z M54.3,59.7
		C54.3,59.7,54.2,59.7,54.3,59.7c-0.2,0-0.4,0-0.5,0l0,0C53.9,59.6,54.1,59.6,54.3,59.7C54.3,59.6,54.3,59.6,54.3,59.7z M53.1,59.5
		c-0.1,0-0.2,0-0.3,0c0-0.6,0-1.2,0-1.9l0,0C52.9,58.2,53,58.9,53.1,59.5z M51.5,59.2L51.5,59.2C51.5,59.2,51.6,59.2,51.5,59.2
		C51.5,59.3,51.5,59.2,51.5,59.2z M51,59.7c0.1,0,0.1,0.1,0.2,0.1c0,0.2,0,0.4,0.1,0.5c-0.1,0-0.2,0-0.2,0c-0.1,0-0.2,0-0.2,0
		c0-0.2-0.1-0.4-0.1-0.7C50.8,59.7,50.9,59.7,51,59.7z M50.9,60.7c0.1,0,0.1,0,0.2,0c0.1,0,0.2,0,0.3,0c0,0.2,0.1,0.4,0.1,0.7
		c-0.2,0-0.3,0-0.5,0C51,61.1,50.9,60.9,50.9,60.7z M51.5,60.7C51.5,60.7,51.6,60.7,51.5,60.7c0.1,0.2,0.1,0.4,0.2,0.6h-0.1
		C51.6,61.1,51.6,60.9,51.5,60.7z M51.7,61.3c0,0,0-0.2-0.1-0.6c0.2,0,0.4,0,0.5,0c0,0.2,0.1,0.4,0.2,0.5
		C52.1,61.2,51.9,61.3,51.7,61.3z M52.4,60.7L52.4,60.7c0.1,0.1,0.2,0.2,0.2,0.2c0,0.1,0,0.2,0.1,0.2c-0.1,0-0.1,0-0.2,0
		C52.4,61.1,52.4,60.9,52.4,60.7z M52.9,61.1c0-0.1,0-0.2,0-0.3l0,0c0.2,0.1,0.3,0.3,0.5,0.4c-0.1,0-0.3,0-0.4,0
		C53,61.1,53,61.1,52.9,61.1z M55.3,61.6c0,0-0.3,0-0.9,0.1c-0.1,0-0.1-0.1-0.2-0.1C54.7,61.5,55.1,61.5,55.3,61.6z M54.7,61.1
		c0,0,0-0.1,0-0.2c0.3,0,0.5,0,0.8,0.1c0,0.1,0,0.1,0,0.2C55.2,61.1,54.9,61.1,54.7,61.1z M55.5,61L55.5,61c0.5-0.1,1,0,1.2,0
		C56.7,61,56.3,61,55.5,61z M55.9,60.6L55.9,60.6c0.3-0.1,0.6-0.1,0.9-0.1l0,0c0,0.1,0,0.1,0,0.2C56.5,60.7,56.2,60.6,55.9,60.6z
		 M56.8,60.7c0-0.1,0-0.1,0-0.2c0.3,0.1,0.7,0.2,1,0.3C57.8,60.8,57.4,60.7,56.8,60.7z M56.8,60c0,0,0-0.1,0-0.2c0.6,0,1.3,0,2,0
		v0.1C58.2,60,57.5,60,56.8,60z M59,60.6c0,0.1,0,0.1,0.1,0.2c-0.2-0.1-0.4-0.2-0.8-0.3C58.5,60.5,58.8,60.5,59,60.6z M59.1,59.9
		c0.4,0,0.7,0,1.1,0.1l0,0C59.9,60,59.5,60,59.1,59.9C59.1,59.9,59.1,59.9,59.1,59.9z M68.4,58.9L68.4,58.9c0,0.1-0.1,0.1-0.2,0.1
		c-0.1-0.1-0.2-0.1-0.4-0.2c0-0.1,0-0.1,0-0.2c0.1-0.1,0.1-0.3,0.2-0.4C68.1,58.5,68.2,58.7,68.4,58.9c-0.1,0-0.2,0-0.3,0
		C68,58.9,68.2,58.9,68.4,58.9z M67.7,58.2c-0.1-0.3-0.1-0.5-0.1-0.5l0,0c0.1,0.1,0.2,0.2,0.3,0.3C67.7,58.1,67.7,58.1,67.7,58.2z
		 M67.8,57c0.2-0.4,0.4-0.7,0.6-1c0,0.1,0,0.2,0.1,0.3c-0.1,0.3-0.3,0.7-0.4,1C68,57.2,67.9,57.1,67.8,57z M67.7,56.8L67.7,56.8
		c0-0.2,0.1-0.3,0.2-0.4C67.8,56.5,67.7,56.6,67.7,56.8z M66.1,55c-0.1-0.1-0.1-0.1-0.2-0.2c0.2-0.1,0.3-0.1,0.5-0.2
		C66.3,54.8,66.2,54.9,66.1,55z M65.6,54.5L65.6,54.5c-0.1,0-0.1-0.1-0.2-0.1c0.4-0.2,0.7-0.5,1-0.8C66.1,54,65.9,54.3,65.6,54.5z
		 M64.6,54.8L64.6,54.8L64.6,54.8L64.6,54.8L64.6,54.8L64.6,54.8c0,0-0.1-0.1-0.1-0.2C64.5,54.7,64.5,54.7,64.6,54.8z M63.9,53.4
		c0.3-0.1,0.6-0.2,0.8-0.3c-0.2,0.2-0.3,0.4-0.4,0.6C64.2,53.5,64,53.4,63.9,53.4z M61.2,55c0.1-0.7,0.2-1.2,0.5-1.7
		C61.5,54.1,61.3,54.6,61.2,55z M55.1,58.6c-0.2,0-0.4,0-0.5,0.1C54.5,58.6,54.7,58.6,55.1,58.6c0,0.2,0.1,0.3,0.1,0.5
		c0,0.1,0,0.2,0,0.3c-0.2,0-0.5,0-0.7,0c0-0.4,0-0.9,0-1.5c0.2,0,0.3,0.1,0.5,0.1C55,58.2,55,58.4,55.1,58.6z M54.2,59.4
		c-0.2,0-0.3,0-0.5,0c0-0.5,0-1,0.1-1.6c0,0,0.1,0,0.2,0C54.1,58.3,54.1,58.9,54.2,59.4z M52.9,57.6L52.9,57.6L52.9,57.6L52.9,57.6z
		 M52.3,59.5L52.3,59.5c-0.2-1.3-0.3-2.9,0.1-4.5C52.3,56.2,52.1,57.9,52.3,59.5z M51.9,59.1c-0.1-0.2-0.3-0.4-0.4-0.6
		c0-0.9,0.1-2,0.4-3C51.8,56.6,51.8,57.9,51.9,59.1z M51.2,59c-0.2-0.1-0.3-0.2-0.5-0.4c0-0.1,0-0.3,0-0.4c0.2,0.2,0.3,0.4,0.5,0.6
		C51.2,58.9,51.2,58.9,51.2,59z M50.8,59.5C50.7,59.5,50.7,59.5,50.8,59.5C50.7,59.5,50.7,59.5,50.8,59.5
		C50.7,59.5,50.7,59.5,50.8,59.5z M50.1,60.7c0.1,0,0.2,0,0.3,0C50.3,60.7,50.2,60.8,50.1,60.7C50.1,60.8,50.1,60.7,50.1,60.7z
		 M50.1,60.8c0.1,0,0.2,0,0.3-0.1v0.1c0,0.2,0.1,0.4,0.2,0.6c-0.1,0-0.3,0-0.4,0C50.1,61.3,50.1,61,50.1,60.8z M49.8,62.2
		C49.9,62.2,49.9,62.2,49.8,62.2c-0.3,0.1-0.6,0.2-0.9,0.3c-0.1-0.1-0.1-0.3-0.2-0.4c0.3,0,0.6-0.1,0.9-0.1
		C49.7,62,49.8,62.1,49.8,62.2z M46.1,62.5c0.1,0.2,0.2,0.3,0.4,0.5c-0.1,0-0.3,0.1-0.4,0.1C46.1,63,46.1,62.8,46.1,62.5z
		 M47.4,62.8c-0.1,0-0.2,0.1-0.3,0.1c0-0.2-0.1-0.4-0.2-0.7c0.1,0,0.2,0,0.2,0C47.3,62.4,47.4,62.6,47.4,62.8z M47.8,62.4
		c0,0.1,0.1,0.2,0.2,0.3h-0.1C47.8,62.6,47.8,62.5,47.8,62.4z M47.3,63.3c0.1,0,0.2,0,0.4-0.1c0,0,0,0,0,0.1
		C47.6,63.3,47.4,63.3,47.3,63.3C47.3,63.4,47.3,63.3,47.3,63.3z M46.9,63.4L46.9,63.4c-0.1,0-0.2,0-0.3,0.1
		C46.6,63.5,46.7,63.4,46.9,63.4z M47.6,63.7c0.1,0,0.2,0,0.3,0c0.1,0.1,0.1,0.2,0.2,0.3c0,0,0-0.1-0.1-0.3c0.2,0,0.3,0,0.5,0
		c0.1,0.1,0.2,0.3,0.2,0.4c-0.2,0-0.5,0.1-0.7,0.1C47.8,64,47.7,63.8,47.6,63.7z M47.8,64.2c-0.1,0-0.2,0-0.3,0.1
		c0-0.1,0-0.2-0.1-0.3C47.5,64,47.6,64.1,47.8,64.2z M47.9,63.3C47.9,63.3,47.9,63.2,47.9,63.3c0.1-0.1,0.2-0.1,0.3-0.1v0.1
		C48.2,63.3,48,63.3,47.9,63.3z M48.5,63.1c0.2,0,0.4-0.1,0.6-0.1l0.1,0.1C49,63.1,48.8,63.1,48.5,63.1
		C48.5,63.2,48.5,63.1,48.5,63.1z M49.2,63.2C49.2,63.2,49.2,63.1,49.2,63.2c0.2-0.1,0.5-0.2,0.8-0.2c0,0.1,0,0.2,0.1,0.2
		C49.9,63.1,49.6,63.1,49.2,63.2z M50.4,62.9C50.4,62.9,50.5,62.9,50.4,62.9c0.2,0.1,0.3,0.2,0.4,0.3c-0.1,0-0.2,0-0.3,0
		C50.4,63.1,50.4,63,50.4,62.9z M48.8,62.5c-0.2,0-0.4,0.1-0.5,0.1c-0.1-0.2-0.1-0.3-0.2-0.5c0.2,0,0.3,0,0.5-0.1
		C48.6,62.2,48.7,62.3,48.8,62.5z M46.3,61.3c0.1,0.3,0.1,0.5,0.2,0.8l0,0c-0.1-0.2-0.2-0.3-0.3-0.5C46.2,61.5,46.2,61.4,46.3,61.3z
		 M46,63.2c-0.1,0-0.2,0.1-0.3,0.1c-0.1-0.3-0.2-0.6-0.3-0.9c0.1,0,0.3,0,0.5-0.1C45.9,62.6,45.9,62.9,46,63.2z M45.8,63.9
		c0.1,0,0.2,0,0.2,0c0,0.1,0,0.2,0.1,0.3c0,0,0-0.1,0-0.3c0.3,0,0.6-0.1,0.9-0.1c0.1,0.2,0.1,0.4,0.2,0.5c-0.3,0.1-0.7,0.1-1.1,0.2
		C46,64.3,45.9,64.1,45.8,63.9z M47.3,64.5c0,0.1,0.1,0.2,0.1,0.3c-0.3,0.1-0.6,0.2-0.9,0.3c-0.1-0.1-0.2-0.3-0.2-0.4
		C46.6,64.7,47,64.6,47.3,64.5z M47.5,64.5c0.2,0,0.4-0.1,0.6-0.1c0.1,0,0.2,0.1,0.2,0.1s-0.1-0.1-0.2-0.2c0.2,0,0.5-0.1,0.7-0.1
		l0.1,0.1c-0.4,0.1-0.9,0.3-1.4,0.4C47.6,64.7,47.6,64.6,47.5,64.5z M49,64.2c0.6-0.1,1.1-0.2,1.4-0.2c0,0-0.5,0.1-1.3,0.4
		C49.1,64.3,49,64.3,49,64.2z M48.7,65c-0.1,0.1-0.3,0.1-0.4,0.2c-0.2,0.1-0.3,0.1-0.5,0.2c0,0,0-0.1,0-0.2
		C48.1,65.1,48.4,65,48.7,65z M48.9,63.9c-0.1-0.1-0.1-0.2-0.2-0.4c0.5,0,1.1-0.1,1.6-0.1c0,0.1,0,0.1,0.1,0.2
		C50,63.7,49.4,63.8,48.9,63.9z M50.6,63.5c0.3,0,0.5,0,0.8,0l0,0C51.4,63.5,51.1,63.5,50.6,63.5C50.6,63.6,50.6,63.5,50.6,63.5z
		 M50.9,63.1c0-0.1-0.1-0.2-0.2-0.3c0.1,0,0.2,0,0.3,0c0,0.1,0.1,0.2,0.1,0.3C51.1,63.1,51,63.1,50.9,63.1z M50.3,62.2
		C50.3,62.2,50.3,62.1,50.3,62.2c-0.1-0.2-0.1-0.3-0.1-0.4c0.2,0,0.3,0,0.5,0c0,0.1,0.1,0.2,0.1,0.3C50.6,62.1,50.5,62.2,50.3,62.2z
		 M51.1,61.7c0.2,0,0.3,0,0.5,0c0,0.1,0.1,0.2,0.1,0.3c-0.2,0-0.3,0-0.5,0.1C51.1,61.9,51.1,61.8,51.1,61.7z M51.7,62
		c0-0.1,0-0.2,0-0.3c0.3,0,0.5,0,0.8-0.1c0,0.1,0.1,0.1,0.1,0.2C52.3,61.9,52,61.9,51.7,62z M52.6,61.8c0,0,0-0.1,0-0.2
		c0.1,0,0.2,0,0.3,0c0,0.1,0,0.1,0.1,0.2C52.8,61.8,52.7,61.8,52.6,61.8z M53.2,61.8c0-0.1,0-0.1,0-0.2c0.2,0,0.4,0,0.6,0
		c0,0.1,0.1,0.1,0.1,0.2C53.6,61.7,53.4,61.7,53.2,61.8z M54,61.7c0,0,0-0.1,0-0.2l0,0c0.1,0.1,0.2,0.1,0.2,0.1
		C54.1,61.7,54,61.7,54,61.7z M59.3,60.6c0.2,0,0.3,0,0.4,0.1c0,0,0,0,0.1,0c-0.2,0-0.3,0.1-0.5,0.1C59.3,60.7,59.3,60.7,59.3,60.6z
		 M68.6,58.1c-0.1-0.2-0.2-0.3-0.3-0.5c0.1-0.3,0.2-0.5,0.3-0.7c0,0.2,0,0.4,0.1,0.5C68.6,57.7,68.6,58,68.6,58.1z M67.3,56.3
		c-0.1-0.1-0.3-0.3-0.4-0.5c0.5-0.3,0.9-0.6,1.2-0.9c0,0.1,0.1,0.2,0.1,0.3C67.9,55.6,67.6,56,67.3,56.3z M66.7,55.6
		c-0.1-0.1-0.2-0.2-0.4-0.4c0.4-0.3,0.7-0.7,0.9-1c0.2-0.1,0.3-0.2,0.5-0.3c0.1,0.1,0.1,0.3,0.2,0.5C67.5,54.9,67.1,55.3,66.7,55.6z
		 M67,52.2c0,0-0.1-0.1-0.2-0.1C66.8,52.1,66.9,52.1,67,52.2c-0.6,0.9-1.3,1.6-1.7,2.1c-0.3-0.2-0.5-0.4-0.8-0.6
		c0.3-0.3,0.6-0.7,1-1c0.5-0.3,0.9-0.6,1.2-0.9c0.3-0.2,0.5-0.3,0.8-0.4C67.3,51.7,67.2,52,67,52.2z M63.8,53.3
		C63.7,53.3,63.7,53.3,63.8,53.3c0.7-0.8,2-2.1,3.2-2.7C66,51.9,64.5,52.9,63.8,53.3z M61.2,52.2c0.4-0.9,0.9-1.6,1.4-2.1
		c-0.4,0.6-0.8,1.4-1.1,2.3C61.4,52.2,61.3,52.2,61.2,52.2z M60.8,52.1c-0.4-0.1-0.9-0.2-1.4-0.3c0.5-0.6,1.8-2.2,3.6-3.3
		C62.1,49.4,61.2,50.7,60.8,52.1z M59.3,51.8c-0.1,0-0.1,0-0.2,0c0.2-0.3,0.4-0.5,0.7-0.8C59.6,51.2,59.5,51.5,59.3,51.8z
		 M55.7,52.6c-0.2,0.6-0.6,2.3-0.7,4l0,0l0,0c0,0.4,0,0.7,0,1.1c-0.2,0-0.3,0-0.5-0.1C54.6,56.2,54.8,54.3,55.7,52.6
		C55.6,52.6,55.6,52.6,55.7,52.6z M54,57.7L54,57.7c-0.1-0.2,0-0.4,0-0.7C54,57.2,54,57.5,54,57.7z M50.7,57.4c0-0.3,0-0.6,0.1-0.9
		c0,0.4,0.1,0.9,0.2,1.3C50.9,57.7,50.8,57.5,50.7,57.4z M49.6,60.7L49.6,60.7C49.6,60.7,49.5,60.7,49.6,60.7
		C49.5,60.7,49.5,60.7,49.6,60.7z M49.4,61.6c-0.3,0-0.5,0.1-0.8,0.1c-0.1-0.3-0.2-0.6-0.3-0.9c0.2,0,0.4,0,0.6,0
		C49.1,61,49.3,61.3,49.4,61.6z M48.4,61.7c-0.2,0-0.3,0.1-0.5,0.1c-0.1-0.3-0.2-0.6-0.3-0.9c0-0.1,0-0.3,0-0.5c0.1,0,0.2,0,0.2,0
		C48,60.9,48.2,61.3,48.4,61.7z M47.6,60.3c0-0.2,0-0.3,0-0.5c0.1,0.2,0.1,0.3,0.2,0.5C47.7,60.3,47.6,60.3,47.6,60.3z M47.1,59
		L47.1,59L47.1,59C47.1,58.9,47.1,59,47.1,59z M46.9,60.3c-0.1,0-0.2,0-0.3,0c0-0.1,0-0.1,0-0.2c0-0.1,0.1-0.2,0.1-0.3
		C46.7,60,46.8,60.1,46.9,60.3z M46.4,59.2L46.4,59.2L46.4,59.2L46.4,59.2z M46,60.3L46,60.3c-0.1,0-0.1,0.1-0.2,0.1
		c0-0.1,0-0.1,0-0.2c0-0.1,0.1-0.2,0.1-0.3C45.9,60,46,60.2,46,60.3z M45.8,62.1c0,0.1,0,0.1,0,0.2c-0.2,0-0.4,0.1-0.5,0.1
		c0-0.2-0.1-0.3-0.1-0.5s0.1-0.5,0.2-0.7C45.5,61.5,45.6,61.8,45.8,62.1z M45.3,63.4c-0.1,0-0.1,0-0.2,0.1c0-0.2,0-0.3,0-0.5
		C45.1,63.2,45.2,63.3,45.3,63.4z M45.2,65c0.3-0.1,0.6-0.1,0.9-0.2c0.1,0.1,0.2,0.3,0.4,0.4c-0.3,0.1-0.6,0.2-1,0.3
		C45.4,65.4,45.3,65.2,45.2,65z M46.7,65.5L46.7,65.5L46.7,65.5c0.3-0.1,0.6-0.2,0.8-0.3c0,0.1,0,0.1,0.1,0.2
		c-0.5,0.2-1.2,0.4-1.9,0.7c0-0.1-0.1-0.1-0.1-0.2C46,65.8,46.4,65.6,46.7,65.5z M51.5,63.2c0-0.1-0.1-0.2-0.1-0.4
		c0.5,0,1.1,0,1.6,0c0,0,0.5-0.1,1.3-0.3c-0.7,0.2-1.3,0.5-2,0.8C52.1,63.2,51.8,63.2,51.5,63.2z M63.6,60.3c0.1,0,0.1,0,0.2,0
		c-0.1,0.1-0.2,0.1-0.3,0.2C63.6,60.4,63.6,60.3,63.6,60.3z M68.6,54.7C68.5,54.7,68.5,54.7,68.6,54.7
		C68.5,54.7,68.5,54.6,68.6,54.7v-0.2C68.5,54.5,68.6,54.6,68.6,54.7z M68.4,53.8c-0.1,0.1-0.1,0.2-0.2,0.3c0-0.1-0.1-0.2-0.1-0.3
		c0.1-0.1,0.2-0.1,0.3-0.2C68.4,53.6,68.4,53.7,68.4,53.8z M68,52.9c0.1-0.1,0.1-0.3,0.1-0.4c0,0.1,0,0.1,0.1,0.2
		C68.1,52.8,68.1,52.9,68,52.9z M66.9,49.8L66.9,49.8c-0.6,0.5-2.3,1.9-3.4,3.4l-0.1-0.1c0.2-0.2,0.4-0.4,0.7-0.7
		C65.1,51.1,65.9,50.1,66.9,49.8z M61.9,52.4c0.1-0.2,0.2-0.4,0.4-0.7C62.1,52,62,52.2,61.9,52.4L61.9,52.4z M62.2,47.8
		c-1,1-2.2,2.4-3.3,3.9c-0.4,0-0.7,0-1.1,0c0.1-0.3,0.3-0.7,0.6-1.1C59.4,49.6,60.6,48.5,62.2,47.8z M57.7,51.7c-0.1,0-0.1,0-0.2,0
		c0.1-0.1,0.2-0.2,0.2-0.3C57.7,51.5,57.7,51.6,57.7,51.7z M49.9,57.8L49.9,57.8L49.9,57.8L49.9,57.8z M49.9,58.9L49.9,58.9
		c0.1,0.3,0.2,0.5,0.2,0.7c-0.1,0-0.1,0-0.2,0C50,59.4,49.9,59.1,49.9,58.9z M50.2,59.7c0,0.2,0.1,0.5,0.1,0.7c-0.1,0-0.2,0-0.3,0
		c0-0.2,0-0.4,0-0.7C50,59.7,50.1,59.7,50.2,59.7z M48.9,60.6c-0.2,0-0.4,0.1-0.6,0.1c0-0.1,0-0.1-0.1-0.2
		C48.5,60.5,48.7,60.5,48.9,60.6L48.9,60.6z M48.2,60.3c-0.2-0.8-0.4-1.6-0.5-2.4c0-0.1,0-0.2,0.1-0.3c0.2,0.6,0.5,1.6,1,2.7
		C48.6,60.3,48.4,60.3,48.2,60.3z M44.3,63.8c-0.2,0.1-0.3,0.1-0.5,0.2c0.1-0.7,0.2-1.3,0.3-1.7C44.1,62.6,44.1,63.1,44.3,63.8z
		 M44.4,64.1c0.1,0.2,0.2,0.4,0.3,0.6c-0.3,0.1-0.7,0.1-1,0.2c0-0.2,0.1-0.5,0.1-0.7C44,64.2,44.2,64.2,44.4,64.1z M44.8,65
		c0.1,0.2,0.2,0.4,0.3,0.6c0,0,0,0,0,0.1c-0.5,0.2-1.1,0.4-1.6,0.6c0-0.3,0.1-0.7,0.1-1C44,65.2,44.4,65.1,44.8,65z M45.4,66
		c0.1,0.1,0.1,0.1,0.2,0.2c-0.7,0.3-1.4,0.6-2.2,1c0-0.2,0-0.3,0-0.5C44.1,66.4,44.8,66.2,45.4,66z M56.2,68.1
		c0.4-1.3,1.2-3.2,2.4-5c-0.5,1-1,2.4-1.3,4C56.9,67.5,56.5,67.8,56.2,68.1z M62,63.3c0.2-0.4,0.4-0.9,0.6-1.3
		c0.7-0.5,1.5-1,2.4-1.3c0,0-1.2,0.6-2.3,2.1C62.4,62.9,62.2,63.1,62,63.3z M74,60.6c-0.1,0-0.2,0-0.2,0l0,0
		C73.8,60.6,73.9,60.5,74,60.6C74,60.5,74,60.6,74,60.6z M77.3,62.5L77.3,62.5C77.3,62.5,77.3,62.6,77.3,62.5
		C77.4,62.6,77.4,62.6,77.3,62.5C77.3,62.6,77.3,62.6,77.3,62.5z M73,59.4L73,59.4c-0.2,0-0.4-0.1-0.7-0.2l0,0
		C72.6,59.3,72.8,59.4,73,59.4z M69.7,58.4L69.7,58.4L69.7,58.4c-0.1,0,0.1-0.1,0.3-0.3C69.9,58.3,69.8,58.4,69.7,58.4z M72.4,53.8
		c0.6-0.7,1.4-1.6,2.3-2.7c0.1-0.1,0.3-0.2,0.4-0.3C74.4,51.7,73.5,52.7,72.4,53.8z M72.4,52.7c0-0.1,0.1-0.2,0.1-0.2l0,0
		c0,0,0.2-0.1,0.4-0.2C72.8,52.5,72.6,52.6,72.4,52.7z M70.5,56c0-0.2,0.1-0.4,0.1-0.6c0,0.1,0.1,0.2,0.1,0.4
		C70.6,55.8,70.6,55.9,70.5,56z M69.7,56.1c0,0,0.4-2-0.9-4.3c0.5,0.6,0.9,1.4,1.3,2.2C70.1,54.7,70,55.4,69.7,56.1z M64.1,51.4
		c-0.5,0.7-0.7,1.2-1,1.5c-0.3-0.1-0.5-0.3-0.8-0.4c1-2.2,3.4-3.4,4-3.6c0,0,0,0.1,0.1,0.1C66,49.3,64.8,50.4,64.1,51.4z M58,50.6
		c-0.3,0.4-0.5,0.7-0.7,1.2c-0.3,0-0.6,0-0.9,0.1c0.3-0.6,2.6-4.3,6-6.1l0,0C61.6,46.3,59.1,48.2,58,50.6z M55.2,44.5
		c0,0.1,0,0.2,0,0.4c-0.1,0.1-0.2,0.3-0.4,0.4c0.1-0.3,0.2-0.5,0.3-0.8C55.1,44.5,55.2,44.5,55.2,44.5z M56.2,45.9
		c-0.2,0.4-0.5,0.7-0.7,1.2c0-0.2,0-0.3,0.1-0.5C55.8,46.4,56,46.1,56.2,45.9z M55,48.4c0,0.1,0,0.1,0,0.2C55,48.5,55,48.5,55,48.4
		L55,48.4z M55.4,49.2c0.7-1.1,1.7-2.4,3-3.5c-0.9,0.9-2.1,2.2-3,3.7C55.4,49.3,55.4,49.3,55.4,49.2z M57.2,48
		c-0.7,0.9-1.3,2-1.6,3.1c0-0.3-0.1-0.6-0.1-0.9C55.8,49.5,56.4,48.7,57.2,48z M55.5,51.8c0,0.1,0,0.1,0.1,0.2h-0.1
		C55.4,51.9,55.5,51.8,55.5,51.8z M49.1,55.9c0.1,0.1,0.1,0.2,0.2,0.3c0,0.2,0,0.4,0,0.6C49.2,56.5,49.1,56.3,49.1,55.9
		C49.1,56,49.1,56,49.1,55.9z M49.3,58.2c0,0.5,0,0.9,0.1,1.5h-0.1c0,0,0,0,0.1,0c0,0.2,0,0.4,0.1,0.7h-0.1c-0.5-1.1-0.9-2.5-1-3.7
		c0,0,0,0,0.1-0.1C48.5,56.9,48.8,57.5,49.3,58.2z M43.5,64.1c-0.1,0-0.2,0.1-0.3,0.1c0.2-0.6,0.3-1.2,0.5-1.5
		C43.7,62.7,43.6,63.2,43.5,64.1z M43.4,64.4L43.4,64.4c0.1,0.2,0.1,0.5,0,0.7c-0.1,0-0.3,0.1-0.4,0.1c0.1-0.2,0.1-0.5,0.2-0.7
		C43.3,64.4,43.3,64.4,43.4,64.4z M43.4,65.3c0,0.3-0.1,0.7-0.1,1.1c-0.2,0.1-0.4,0.2-0.6,0.3c0.1-0.4,0.2-0.8,0.3-1.2
		C43.1,65.4,43.3,65.4,43.4,65.3z M43.3,66.7c0,0.2,0,0.3,0,0.5c-0.2,0.1-0.5,0.2-0.8,0.4c0-0.2,0.1-0.4,0.1-0.6
		C42.9,66.9,43.1,66.8,43.3,66.7z M28.6,37.1c0,0,0-0.1,0-0.2c0.7-0.6,1.4-1.2,2.2-1.7C30.2,35.7,29.4,36.3,28.6,37.1z M20,21.2
		c0.1-0.1,0.1-0.2,0.2-0.3c0.3,0,0.6,0,0.9,0c-0.1,0.3-0.3,0.6-0.4,0.9c-0.3,0-0.5,0.1-0.8,0.2c0-0.1-0.1-0.2-0.1-0.4
		C19.9,21.4,19.9,21.3,20,21.2z M19.6,18c0-0.2,0-0.4,0-0.5c0,0,0,0,0-0.1c0.2,0,0.3,0,0.5,0c-0.1,0.2-0.3,0.4-0.4,0.6
		C19.7,18,19.7,18,19.6,18z M19.7,18.1c0,0.1-0.1,0.1-0.1,0.2c0-0.1,0-0.1,0-0.2H19.7z M43.3,14.8c-0.2,0.3-0.4,0.6-0.7,0.9v-0.1
		l0,0l0,0c0.1-0.2,0.1-0.4,0.2-0.6C42.9,15,43.1,14.9,43.3,14.8L43.3,14.8z M31.9,32.2L31.9,32.2c0.1-0.2,0.2-0.2,0.3-0.3
		c0,0.1,0,0.1,0,0.1c0-0.1,0.1-0.1,0.2-0.2h0.1c0,0.1,0,0.2,0,0.2c0-0.1,0-0.1,0-0.2c0.4-0.2,0.8-0.4,1.2-0.6v0.1
		c-0.2,0.2-0.5,0.3-0.8,0.6C32.5,31.9,32.2,32,31.9,32.2z M28.4,31.3c-0.3-0.8-0.7-2-0.8-3.2c0.1-0.1,0.2-0.2,0.2-0.4
		c0,0.1,0.1,0.2,0.1,0.3c0,0.8,0.1,1.7,0.2,2.5c0,0-0.1-0.8-0.1-2C28.5,29.7,28.4,30.8,28.4,31.3z M16.8,30.4
		c-0.1-1.5-0.2-3.4,0.2-5.2c-0.2,1.4-0.3,3.4,0,5.4C16.9,30.5,16.9,30.5,16.8,30.4z M16.5,29.9c-0.2-0.2-0.3-0.4-0.5-0.7
		c0-1.1,0.1-2.2,0.4-3.4C16.3,27,16.3,28.5,16.5,29.9z M16.1,30.1c0,0-0.1,0-0.1-0.1c0,0,0,0,0-0.1C16,30,16,30,16.1,30.1z
		 M16.6,31.3c-0.1,0.2-0.3,0.4-0.4,0.5c0-0.2-0.1-0.6-0.1-1C16.2,31.1,16.4,31.2,16.6,31.3z M17.5,30.4c0-0.7,0-1.4,0.1-2.2
		c0,0.6,0.1,1.3,0.2,2C17.7,30.2,17.6,30.3,17.5,30.4z M15.1,28.9c0.2,0.2,0.3,0.4,0.5,0.7c0,0.1,0,0.2,0,0.3
		c-0.2-0.1-0.4-0.3-0.5-0.4C15.1,29.2,15.1,29,15.1,28.9z M15.1,27.9c0-0.3,0.1-0.7,0.1-1c0.1,0.5,0.1,1,0.2,1.5
		C15.3,28.3,15.2,28.1,15.1,27.9z M16.1,31.9C16.1,32,16.1,32,16.1,31.9C16,31.8,16,31.6,16,31.4C16.1,31.6,16.1,31.8,16.1,31.9z
		 M18.6,29.3c0-0.6,0.1-1.2,0.2-1.8c0,0.5,0.1,1,0.1,1.6C18.8,29.2,18.7,29.2,18.6,29.3z M20.3,16.7c0.1-0.1,0.2-0.2,0.2-0.3
		c0.1,0,0.2,0,0.3,0.1c0,0.1-0.1,0.1-0.2,0.2C20.5,16.7,20.4,16.7,20.3,16.7z M40.3,14.5c-0.1,0.2-0.1,0.4-0.2,0.6
		c-0.5,0.3-1,0.7-1.3,1C39.3,15.6,39.8,15,40.3,14.5z M28.8,29.6c0-0.5-0.1-1-0.1-1.4c0-0.1,0-0.3,0-0.4c0.2,0,0.3,0.1,0.5,0.1
		c0.1,0.1,0.2,0.2,0.2,0.4c-0.1,0.7-0.2,1.2-0.2,1.2c0.1-0.3,0.3-0.6,0.4-0.9c0,0.1,0.1,0.1,0.1,0.2c-0.3,0.5-0.6,0.9-0.8,1.2
		C28.9,29.7,28.8,29.6,28.8,29.6z M26.9,27.2c0-0.1,0-0.2,0-0.2l0,0H27c0,0,0,0,0,0.1s0,0.1,0,0.2C27,27.2,26.9,27.2,26.9,27.2z
		 M22.8,18c0.1-0.1,0.1-0.1,0.2-0.2C22.9,17.8,22.9,17.9,22.8,18L22.8,18z M34.7,30.2L34.7,30.2C34.7,30.1,34.7,30.1,34.7,30.2
		C34.7,30.1,34.7,30.2,34.7,30.2L34.7,30.2z M33.9,31.1C33.9,31,33.9,31,33.9,31.1c0.2-0.2,0.3-0.2,0.5-0.3
		C34.4,30.8,34.2,30.9,33.9,31.1z M31.4,28.3L31.4,28.3L31.4,28.3L31.4,28.3z M24,26.5L24,26.5C24,26.5,24,26.6,24,26.5
		C24,26.6,24,26.6,24,26.5C24,26.6,24,26.6,24,26.5z M37.8,22c0.2-0.2,0.5-0.4,0.8-0.6c0,0.1,0,0.1,0,0.2c-0.1,0.2-0.2,0.4-0.2,0.6
		c-0.2,0.1-0.4,0.3-0.6,0.4C37.8,22.3,37.8,22.1,37.8,22z M38.6,22.9c0.1-0.1,0.3-0.3,0.4-0.4c-0.1,0.2-0.2,0.5-0.3,0.7
		c-0.1,0-0.1,0.1-0.2,0.1C38.5,23.1,38.5,23,38.6,22.9z M37.7,25.5L37.7,25.5c-0.1,0.5-0.1,0.9-0.1,0.9l0,0
		C37.5,26.2,37.6,25.9,37.7,25.5z M38.3,24.1c0-0.1,0-0.2,0-0.3c0,0,0,0,0.1,0C38.4,23.9,38.3,24,38.3,24.1L38.3,24.1z M37.1,25.5
		c-0.1,0.2-0.2,0.4-0.3,0.5c0-0.2,0.1-0.4,0.1-0.5c0.1-0.2,0.2-0.4,0.3-0.6C37.1,25.1,37.1,25.3,37.1,25.5z M36.8,26.9
		c-0.1,0.4-0.2,0.6-0.2,0.8l0,0c0-0.1,0-0.3,0.1-0.5C36.7,27.1,36.7,27,36.8,26.9z M30.5,21.5L30.5,21.5L30.5,21.5l-0.1-0.1l0.1-0.1
		C30.5,21.3,30.5,21.4,30.5,21.5z M33.5,28.3L33.5,28.3c0.1,0.1,0.2,0.2,0.3,0.3l0,0c0,0-0.1,0-0.1-0.1
		C33.6,28.4,33.5,28.3,33.5,28.3z M33.8,26.2c0,0,0-0.1-0.1-0.4v-0.1c0,0,0.1,0,0.1-0.1C33.8,25.9,33.8,26.1,33.8,26.2z M29.3,22.8
		C29.3,22.8,29.2,22.9,29.3,22.8c-0.1,0-0.1,0-0.1,0S29.2,22.8,29.3,22.8C29.2,22.8,29.2,22.8,29.3,22.8z M30.2,23.3L30.2,23.3
		L30.2,23.3L30.2,23.3z M29.8,23.1c0,0-0.1,0-0.1,0.1c-0.1,0-0.2-0.1-0.2-0.1s0-0.1,0.1-0.1S29.8,23,29.8,23.1z M33.6,25.1
		c0-0.2-0.1-0.4-0.1-0.7l0,0C33.6,24.6,33.6,24.8,33.6,25.1C33.6,25,33.6,25,33.6,25.1z M28.6,20.9L28.6,20.9c0.2,0,0.2,0,0.3,0.1
		C28.9,21,28.8,21,28.6,20.9z M28.7,22.6L28.7,22.6c-0.1,0-0.2-0.1-0.3-0.1C28.5,22.5,28.6,22.6,28.7,22.6z M31.6,26.1
		c0.1,0.1,0.1,0.1,0.2,0.2c0,0.1,0,0.2,0,0.2c-0.1-0.1-0.3-0.2-0.4-0.2C31.5,26.2,31.6,26.1,31.6,26.1z M32.4,26.8
		c0.1,0.1,0.1,0.1,0.2,0.2C32.6,27,32.5,26.9,32.4,26.8L32.4,26.8z M29.4,25c0,0.2,0,0.3,0.1,0.5c-0.2-0.1-0.4-0.1-0.6-0.2
		c0.1-0.1,0.2-0.2,0.2-0.3C29.2,24.9,29.3,25,29.4,25z M34.6,26.4c0-0.1,0-0.1-0.1-0.2c0,0,0-0.1,0.1-0.1l0,0
		C34.6,26.2,34.6,26.3,34.6,26.4L34.6,26.4z M26.8,19.1c0.1,0.1,0.2,0.1,0.2,0.2C27.1,19.3,27,19.2,26.8,19.1L26.8,19.1z M27.6,20.2
		c-0.1,0.1-0.2,0.3-0.2,0.4h-0.1C27.3,20.4,27.4,20.3,27.6,20.2L27.6,20.2z M27,21.3L27,21.3c-0.1,0-0.2,0-0.3,0c0,0,0,0,0-0.1
		C26.9,21.2,27,21.2,27,21.3z M28.9,24.9C28.9,24.9,29,24.9,28.9,24.9c0,0.1-0.1,0.2-0.1,0.3l0,0C28.8,25.1,28.9,25,28.9,24.9z
		 M29.5,26c0,0.1,0,0.2,0,0.2c-0.3,0-0.6-0.1-0.9-0.1c0-0.1,0.1-0.3,0.1-0.4C29,25.8,29.2,25.9,29.5,26z M32.7,22.5
		c-0.1-0.2-0.2-0.4-0.2-0.7c0.1,0,0.2-0.1,0.3-0.1c0,0.2,0.1,0.4,0.1,0.6C32.8,22.4,32.7,22.4,32.7,22.5z M31.5,21.8L31.5,21.8
		c-0.1-0.1-0.1-0.3-0.2-0.5c0,0,0,0,0.1,0C31.4,21.5,31.4,21.7,31.5,21.8z M30.1,20.5c0-0.2,0-0.3,0-0.6c0,0.1,0.1,0.3,0.1,0.4
		S30.1,20.5,30.1,20.5z M26.3,19.6c0.2,0.1,0.4,0.2,0.6,0.2c-0.1,0.2-0.3,0.4-0.4,0.6c-0.3-0.1-0.6-0.1-0.9-0.1
		C25.7,20.1,26,19.8,26.3,19.6z M26.1,21.1c0,0,0,0.1-0.1,0.2c-0.5,0-0.9,0-1.4,0c0.1-0.1,0.2-0.2,0.3-0.3
		C25.3,21,25.7,21,26.1,21.1z M26.4,22.8L26.4,22.8C26.5,22.8,26.5,22.8,26.4,22.8L26.4,22.8L26.4,22.8z M32.3,27.7L32.3,27.7
		L32.3,27.7L32.3,27.7z M34.3,25.5L34.3,25.5L34.3,25.5L34.3,25.5z M31.2,20.9L31.2,20.9c-0.1,0-0.1-0.1-0.2-0.2l0.1-0.1
		C31.1,20.7,31.2,20.8,31.2,20.9z M30.7,19.9c-0.1-0.2-0.1-0.3-0.2-0.5l0.1-0.1c0.1,0.2,0.1,0.3,0.2,0.5
		C30.8,19.8,30.8,19.8,30.7,19.9z M25.7,18.3c0.2,0.1,0.3,0.2,0.5,0.3c0,0.1-0.1,0.1-0.2,0.2c-0.2-0.1-0.4-0.2-0.7-0.3
		C25.4,18.4,25.6,18.3,25.7,18.3L25.7,18.3z M25.6,19.3c-0.2,0.3-0.5,0.6-0.7,0.9c-0.5,0-0.9-0.1-1.4-0.1c0.4-0.4,0.8-0.7,1.2-1.1
		C25,19.1,25.3,19.2,25.6,19.3z M24.6,20.9c-0.1,0.1-0.2,0.3-0.2,0.4h-0.1C24.3,21.2,24.4,21,24.6,20.9L24.6,20.9z M27.3,23.8
		c0.1,0,0.2,0,0.2,0.1s-0.1,0.3-0.1,0.5c-0.1,0-0.2,0-0.3,0C27.2,24.2,27.2,24,27.3,23.8z M28.1,24.1h0.1c0,0.1,0,0.2,0,0.2
		c-0.1,0-0.2,0-0.2,0C28,24.2,28,24.1,28.1,24.1z M31.3,27.4c0.1,0,0.2,0,0.3,0.1s0.1,0.2,0.2,0.3l0,0c-0.1,0-0.2-0.1-0.4-0.1
		C31.3,27.6,31.3,27.5,31.3,27.4z M32.6,28C32.6,28,32.7,28,32.6,28c0,0.1,0,0.1,0,0.2c-0.1,0-0.1,0-0.2-0.1
		C32.5,28,32.6,28,32.6,28z M33.8,29.4C33.8,29.3,33.8,29.3,33.8,29.4c0.2,0.1,0.3,0.3,0.4,0.5c-0.1,0-0.2,0.1-0.3,0.1
		C33.8,29.8,33.8,29.6,33.8,29.4z M34.5,29.7L34.5,29.7C34.6,29.7,34.6,29.7,34.5,29.7C34.6,29.7,34.5,29.7,34.5,29.7z M39.4,21.4
		c-0.2,0.1-0.3,0.2-0.5,0.3c0.1-0.3,0.2-0.6,0.3-0.8c0.2-0.1,0.4-0.2,0.5-0.3C39.6,20.9,39.5,21.2,39.4,21.4z M38.8,20.4
		c-0.2,0.1-0.4,0.2-0.6,0.4c0.2-0.2,0.4-0.4,0.7-0.5C38.8,20.3,38.8,20.3,38.8,20.4z M34.5,24.9L34.5,24.9L34.5,24.9L34.5,24.9z
		 M32.2,21.1c0-0.1-0.1-0.2-0.1-0.3c0.1-0.1,0.2-0.2,0.4-0.2c0,0.1,0,0.1,0,0.2C32.4,20.9,32.3,21,32.2,21.1z M31.7,20.1
		c0.1-0.1,0.3-0.2,0.4-0.3c0,0.1,0,0.2,0.1,0.2c-0.1,0.1-0.2,0.2-0.4,0.3C31.8,20.2,31.8,20.1,31.7,20.1z M22.6,15.2
		C22.7,15.2,22.7,15.2,22.6,15.2L22.6,15.2C22.7,15.2,22.6,15.2,22.6,15.2L22.6,15.2z M24.3,20.9c-0.1,0.1-0.2,0.3-0.3,0.4
		c-0.4,0-0.9,0.1-1.3,0.2c-0.1,0-0.1,0-0.2,0c0.1-0.2,0.2-0.4,0.4-0.7C23.3,20.8,23.8,20.8,24.3,20.9z M24,26.3L24,26.3L24,26.3
		L24,26.3z M27,25c0.1,0,0.2,0,0.3,0v0.1C27.2,25,27.1,25,27,25L27,25z M27.8,24.9c0.1,0,0.3,0,0.4,0c0,0.1,0,0.1,0,0.2
		c-0.1,0-0.3,0-0.4-0.1C27.8,25,27.8,25,27.8,24.9z M28.1,25.5c0,0.2-0.1,0.4-0.1,0.6c-0.2,0-0.3,0-0.5,0c0-0.2,0.1-0.5,0.2-0.7
		C27.8,25.4,28,25.5,28.1,25.5z M32.6,28.7c0,0.1,0,0.1,0,0.2C32.6,28.8,32.6,28.8,32.6,28.7L32.6,28.7z M33.4,30.1
		C33.4,30.1,33.4,30.2,33.4,30.1L33.4,30.1L33.4,30.1z M33.9,30.6c0-0.1,0-0.2,0-0.3c0.1,0,0.3-0.1,0.4-0.1c0,0.1,0,0.1,0,0.2
		C34.2,30.5,34.1,30.5,33.9,30.6z M41,19.4c0.1-0.2,0.1-0.3,0.2-0.5C41.2,19.1,41.1,19.2,41,19.4L41,19.4z M40,19.8
		c-0.2,0.1-0.4,0.1-0.5,0.2c0-0.1,0.1-0.2,0.1-0.3c0.2-0.1,0.4-0.2,0.6-0.4C40.2,19.5,40.1,19.6,40,19.8z M39.4,19.2
		c0.1-0.5,0.2-1,0.3-1.5c0.3-0.2,0.6-0.5,0.8-0.7c-0.4,0.7-0.7,1.4-1,2C39.5,19.1,39.4,19.1,39.4,19.2z M39,19.4
		c-0.3,0.2-0.6,0.4-0.9,0.6c0.1-0.4,0.1-0.7,0.2-1c0.3-0.4,0.7-0.7,1-1C39.2,18.5,39.1,18.9,39,19.4z M38,19.4L38,19.4L38,19.4
		L38,19.4z M38.2,18.3c0-0.1,0.1-0.3,0.1-0.4c0.1-0.1,0.2-0.2,0.3-0.3c-0.1,0.1-0.1,0.3-0.2,0.4C38.4,18.2,38.3,18.3,38.2,18.3z
		 M37.9,18.7c-0.2,0.3-0.4,0.5-0.4,0.5c0.1-0.4,0.3-0.7,0.5-1C38,18.4,37.9,18.6,37.9,18.7z M37.6,19.9c0,0.2-0.1,0.4-0.1,0.6
		c-0.4,0.3-0.6,0.6-0.6,0.6C37.1,20.7,37.4,20.3,37.6,19.9z M37,22.8c0,0.1,0,0.1,0,0.2c-0.2,0.1-0.2,0.2-0.2,0.2
		C36.8,23.1,36.9,23,37,22.8z M36,25.6v-0.1c0,0,0,0,0.1-0.1C36.1,25.5,36.1,25.5,36,25.6z M34.3,24.2v-0.1
		C34.3,24.1,34.3,24.1,34.3,24.2L34.3,24.2z M33.2,21.6C33.2,21.5,33.2,21.5,33.2,21.6c0-0.1,0-0.1,0.1-0.1
		C33.2,21.5,33.2,21.5,33.2,21.6z M31.8,18.8c-0.1,0.1-0.3,0.2-0.5,0.4c0-0.1-0.1-0.1-0.1-0.2v-0.1c0.2-0.1,0.4-0.2,0.5-0.3
		C31.8,18.7,31.8,18.8,31.8,18.8z M21.5,15.5h0.1c-0.1,0.2-0.3,0.3-0.4,0.5c-0.1,0-0.2,0-0.3,0C21.1,15.9,21.3,15.7,21.5,15.5z
		 M22.1,15.7C22.1,15.7,22.1,15.8,22.1,15.7c0,0.1-0.1,0.3-0.3,0.4h-0.1C21.8,16,22,15.9,22.1,15.7z M23.8,17.8
		c0.2,0,0.3,0.1,0.5,0.1c-0.1,0.1-0.2,0.2-0.2,0.2c-0.2,0-0.3-0.1-0.5-0.1C23.6,18,23.7,17.9,23.8,17.8z M22.2,21.5L22.2,21.5
		L22.2,21.5L22.2,21.5z M23.2,24.7c0,0.2,0,0.4,0,0.7c-0.1,0-0.2,0.1-0.2,0.1C23,25.2,23.1,25,23.2,24.7z M23.1,25.6
		c0,0.4,0,0.8,0,1.2c-0.2,0.1-0.4,0.1-0.6,0.2c0.1-0.4,0.2-0.9,0.3-1.4C22.9,25.7,23,25.7,23.1,25.6z M26.1,23.5c0.1,0,0.1,0,0.2,0
		c0,0.1,0,0.2-0.1,0.4c0,0,0.1-0.1,0.2-0.4l0,0c0,0.3-0.1,0.6-0.1,0.9c-0.2,0-0.4,0.1-0.6,0.1C25.8,24.1,26,23.8,26.1,23.5z
		 M27.2,25.3c0,0.3-0.1,0.6-0.1,0.9c-0.1,0-0.1,0-0.2,0c0-0.3,0-0.6,0.1-0.9C27.1,25.2,27.1,25.2,27.2,25.3z M29.7,29.2v0.1
		c-0.1,0-0.1,0-0.1,0.1C29.6,29.3,29.6,29.2,29.7,29.2z M29.9,29.1C29.9,29.1,29.9,29.2,29.9,29.1C29.9,29.2,29.8,29.2,29.9,29.1
		C29.8,29.2,29.9,29.2,29.9,29.1z M30.4,29.6c0,0.1,0,0.2,0,0.2c0-0.2-0.1-0.4-0.1-0.6C30.3,29.3,30.4,29.5,30.4,29.6z M31.3,28.7
		L31.3,28.7c0.1-0.1,0.1-0.1,0.2-0.1c0,0.1-0.1,0.2-0.1,0.4C31.4,28.8,31.4,28.8,31.3,28.7z M32,28.5L32,28.5
		c0.2,0.4,0.2,0.8,0.3,1.2c-0.2,0.3-0.3,0.5-0.4,0.8c-0.1-0.4-0.1-0.7-0.2-1.1C31.7,29.1,31.9,28.8,32,28.5z M33.1,29
		c0.1,0.2,0.2,0.4,0.2,0.6c-0.1,0.2-0.2,0.5-0.3,0.7c-0.1,0-0.2,0.1-0.3,0.1c0,0,0,0,0-0.1C32.9,29.9,33,29.4,33.1,29z M32.7,30.8
		c-0.1,0.2-0.2,0.3-0.2,0.5c0-0.1,0-0.3,0.1-0.4C32.6,30.8,32.7,30.8,32.7,30.8z M32.4,31.4c-0.1,0.1-0.3,0.1-0.4,0.2
		c0.1-0.2,0.3-0.5,0.4-0.7C32.4,31.1,32.4,31.3,32.4,31.4z M33,30.7c0.2-0.1,0.3-0.1,0.5-0.2c0,0.1,0,0.2,0,0.3
		c-0.3,0.1-0.6,0.3-0.9,0.5C32.8,31.1,32.9,30.9,33,30.7z M41.5,21.3c0,0.1,0,0.1,0,0.2c0,0,0,0.1-0.1,0.1
		C41.4,21.5,41.5,21.4,41.5,21.3z M41.3,17.7c0.3-0.6,0.5-1.2,0.7-1.7c0.1,0,0.2-0.1,0.2-0.1c-0.1,0.2-0.1,0.4-0.2,0.6
		C41.8,16.8,41.6,17.3,41.3,17.7z M40.6,18.5c-0.2,0.1-0.4,0.2-0.6,0.3c0.3-0.8,0.6-1.5,0.7-1.9c0.3-0.3,0.7-0.5,0.9-0.7
		C41.3,17,40.9,17.7,40.6,18.5z M39.9,16.9c0-0.1,0-0.2,0.1-0.3c0.7-0.5,1.5-0.9,2.2-1.3c-0.1,0.2-0.2,0.4-0.3,0.6
		C41.1,16.2,40.4,16.6,39.9,16.9z M39.5,17.2c-0.4,0.3-0.7,0.6-1,0.8c0-0.1,0.1-0.3,0.1-0.4c0.3-0.3,0.6-0.5,1-0.8
		C39.6,17,39.6,17.1,39.5,17.2z M39.7,16.1c0,0,0.1-0.1,0.2-0.1l0,0C39.8,16,39.8,16.1,39.7,16.1z M26,16.2
		c-0.1-0.1-0.1-0.1-0.2-0.2c0,0,0.1,0,0.1-0.1C26,16,26,16.1,26,16.2C26.1,16.2,26,16.2,26,16.2z M19.3,14c-0.1,0.1-0.3,0.3-0.4,0.5
		c0.1-0.3,0.2-0.6,0.3-0.9h0.1C19.3,13.7,19.3,13.8,19.3,14z M19.8,15.9c0.2-0.2,0.4-0.4,0.6-0.7l0,0c-0.1,0.2-0.3,0.5-0.4,0.7
		C19.9,16,19.9,16,19.8,15.9C19.8,16,19.8,16,19.8,15.9z M21.3,16.6h0.1l-0.1,0.1h-0.1C21.2,16.7,21.2,16.7,21.3,16.6z M22.3,18.4
		c0.1,0,0.1,0,0.2,0c-0.4,0.6-0.8,1.2-1.1,1.8c-0.3,0-0.6,0.1-0.9,0.2C21,19.9,21.6,19.2,22.3,18.4z M23.1,18.6
		c0.2,0,0.4,0.1,0.5,0.1c-0.3,0.5-0.6,0.9-0.9,1.4c-0.3,0-0.6,0-1,0.1C22.1,19.7,22.6,19.2,23.1,18.6z M22.3,20.8
		c-0.2,0.2-0.3,0.5-0.5,0.8c-0.3,0-0.7,0.1-1,0.1h-0.1c0.1-0.2,0.3-0.5,0.6-0.9C21.7,20.8,22,20.8,22.3,20.8z M20.7,22.6
		C20.7,22.6,20.7,22.5,20.7,22.6c-0.2,0.8-0.9,3.4-0.7,5.8c-0.2,0.1-0.4,0.2-0.6,0.4C19.4,26.9,19.7,24.6,20.7,22.6z M25.3,26.3
		c0-0.4,0.1-0.8,0.2-1.2c0.2,0,0.5-0.1,0.7-0.1c0,0.1,0,0.2,0,0.2c-0.4,1-0.7,0.9-0.7,0.9s0.3,0.1,0.7-0.5c0,0.2,0,0.3,0,0.5
		C25.9,26.2,25.6,26.3,25.3,26.3z M26.9,27.5C26.9,27.5,27,27.5,26.9,27.5c0.1,0.4,0.1,0.8,0.1,1.1c-0.1-0.2-0.1-0.5-0.1-0.7
		C26.9,27.8,26.9,27.7,26.9,27.5z M27.2,28.4C27.2,28.5,27.2,28.5,27.2,28.4C27.2,28.5,27.2,28.5,27.2,28.4
		C27.2,28.5,27.2,28.5,27.2,28.4z M29.5,29.3h0.1c0,0.1-0.1,0.3-0.1,0.4c0,0,0.1-0.1,0.3-0.4h0.1c0.2,0.4,0.3,0.8,0.4,1.2
		c-0.1,0.5-0.2,0.8-0.2,0.8c0.1-0.2,0.2-0.4,0.3-0.6c0.1,0.4,0.1,0.7,0.1,0.7c0-0.4,0-0.7,0-1.1c0-0.1,0.1-0.2,0.1-0.3
		c0,0.1,0.1,0.2,0.1,0.3c-0.1,0.5-0.2,0.9-0.2,1.2c-0.3,0.1-0.5,0.3-0.8,0.4c-0.2-0.5-0.5-1.2-0.7-2C29.1,29.7,29.3,29.5,29.5,29.3z
		 M30.8,31c0,0.1,0,0.2,0,0.3c-0.1,0-0.1,0.1-0.2,0.1C30.7,31.2,30.8,31.1,30.8,31z M31,30.5v-0.1c0.1-0.2,0.2-0.3,0.3-0.5
		c0.1,0.3,0.2,0.6,0.3,0.9v0.1c-0.2,0.1-0.4,0.2-0.6,0.3C31,31,31,30.8,31,30.5z M31.8,30.6c0.2-0.2,0.3-0.5,0.5-0.7V30
		c0,0.2-0.1,0.4-0.2,0.5C32,30.5,31.9,30.6,31.8,30.6C31.9,30.7,31.8,30.7,31.8,30.6z M32,31.1c0,0.1-0.1,0.2-0.1,0.3
		C31.9,31.3,31.9,31.2,32,31.1C31.9,31.1,32,31.1,32,31.1z M42.3,15.7c-0.1,0-0.1,0-0.2,0.1c0.1-0.2,0.2-0.4,0.2-0.6h0.1
		C42.4,15.4,42.3,15.6,42.3,15.7z M42.6,14.6C42.6,14.6,42.6,14.5,42.6,14.6C42.6,14.5,42.6,14.6,42.6,14.6L42.6,14.6z M42.8,14.2
		c-0.1,0.1-0.2,0.3-0.3,0.4c-0.9,0.3-1.7,0.7-2.4,1.2v-0.1c1-0.9,2-1.5,2.7-1.8C42.8,14,42.8,14.1,42.8,14.2z M40.3,15
		c0.1-0.2,0.1-0.4,0.1-0.6c0.4-0.4,0.9-0.7,1.3-1c0.5-0.2,1.1-0.4,1.6-0.5c-0.1,0.3-0.2,0.6-0.4,0.9C41.9,14.1,41.1,14.6,40.3,15z
		 M38.4,15.8c0.2-0.4,0.5-0.8,0.8-1.1C38.7,15.4,38.4,15.8,38.4,15.8z M26.9,15.5c0,0,0-0.1-0.1-0.1c0.1,0,0.1-0.1,0.2-0.1v0.1
		C27,15.4,26.9,15.5,26.9,15.5z M19.8,16.4l-0.1,0.1C19.7,16.5,19.7,16.4,19.8,16.4C19.7,16.4,19.8,16.4,19.8,16.4z M20.6,17.4h0.1
		c-0.1,0.2-0.2,0.3-0.4,0.5c0,0-0.1,0-0.2,0C20.3,17.8,20.5,17.6,20.6,17.4z M21.6,17.5c-0.1,0.1-0.2,0.2-0.3,0.4h-0.1
		C21.3,17.8,21.5,17.6,21.6,17.5z M14.2,28.4L14.2,28.4L14.2,28.4L14.2,28.4z M15.1,30.5c0-0.1,0-0.1,0-0.2c0.1,0.1,0.2,0.1,0.3,0.2
		c0.1,0,0.2,0.1,0.2,0.1c0,0.5,0.1,1.1,0.2,1.6c-0.1,0.2-0.3,0.4-0.4,0.6C15.4,32.2,15.2,31.4,15.1,30.5z M17.9,33.7
		c0,0.1,0.1,0.2,0.1,0.2s-0.1-0.3-0.2-0.7c0.3,0.9,0.8,2,1.4,3.1c-0.2-0.1-0.4-0.2-0.7-0.4C18.3,35.2,18.1,34.5,17.9,33.7z M22,24.5
		c-0.1,0.8-0.1,1.8-0.2,2.8c-0.3,0.1-0.7,0.3-1,0.5C21.1,26.8,21.4,25.6,22,24.5z M26.2,31.9C26.2,32,26.2,32,26.2,31.9l-0.1-0.1
		C26.1,31.9,26.2,31.9,26.2,31.9z M26.4,32.2c0.3,0.3,0.5,0.6,0.8,0.9c0.1,0.1,0.2,0.2,0.4,0.3c-0.1,0.1-0.2,0.1-0.3,0.2
		C27.2,33.3,26.8,32.9,26.4,32.2L26.4,32.2z M27.3,32.6c-0.5-0.5-0.8-1-1.1-1.6c-0.1-0.3-0.2-0.7-0.4-1.2c-0.3-1.3-0.2-2.4-0.1-2.8
		h0.1c0,0.1,0,0.2,0.1,0.4c-0.1,0-0.1,0-0.2,0.1c0,0,0.1,0,0.2,0c0.1,0.4,0.3,1.1,0.5,1.7c0,0.1-0.1,0.3-0.1,0.4c0,0,0.1,0,0.2-0.2
		c0.1,0.2,0.2,0.5,0.3,0.7c0.7,1.3,1.1,1.5,1.1,2.4c0,0,0.5-0.4-0.2-2c-0.2-0.5-0.4-0.9-0.5-1.3c0-0.1,0-0.3,0-0.5c0,0,0,0,0.1-0.1
		c0.2,1.2,0.7,2.7,1.5,3.6c0,0-0.1-0.3-0.3-0.8c0.2-0.4,0.3-0.8,0.3-1.2c0.2,0.6,0.5,1.1,0.8,1.6c-0.6,0.3-1.2,0.7-1.8,1.2
		C27.7,32.9,27.5,32.8,27.3,32.6z M29.7,32.2c0.1,0.1,0.2,0.3,0.3,0.4C30,32.6,29.9,32.4,29.7,32.2c0.2-0.1,0.4-0.2,0.6-0.3
		c0,0.1,0,0.1,0,0.1s0-0.1,0.1-0.1c0.3-0.1,0.6-0.3,0.9-0.4c-0.1,0.2-0.2,0.3-0.2,0.3c0.1-0.1,0.2-0.2,0.3-0.4
		c0.1-0.1,0.2-0.1,0.4-0.2c0,0.2,0.1,0.3,0.1,0.5v0.1c-1.1,0.6-2.2,1.2-3.4,1.9c-0.1-0.2-0.3-0.3-0.5-0.5
		C28.3,32.9,29,32.5,29.7,32.2z M31.5,32.3L31.5,32.3c-0.2,0.1-0.3,0.2-0.5,0.3C31.2,32.4,31.4,32.3,31.5,32.3z M31.7,32.2
		c0.1,0,0.1-0.1,0.2-0.1v0.1C31.8,32.2,31.7,32.3,31.7,32.2C31.6,32.2,31.7,32.2,31.7,32.2z M36.9,29.2L36.9,29.2
		C37,29.2,37,29.2,36.9,29.2c0.1,0,0,0.1,0,0.2C37,29.3,36.9,29.2,36.9,29.2z M37.8,28.1L37.8,28.1C37.9,28,37.9,28,38,28
		c0,0.1,0,0.1,0,0.2c-0.1,0-0.1,0-0.2,0.1C37.8,28.2,37.8,28.2,37.8,28.1z M40.2,25.9c0.1,0,0.1-0.1,0.2-0.1c0,0.1,0,0.1-0.1,0.2
		C40.3,26,40.2,26,40.2,25.9C40.2,26,40.2,26,40.2,25.9z M41.7,25.3c0,0.1,0.1,0.1,0.1,0.2c-0.1,0-0.1,0-0.2,0
		C41.7,25.4,41.7,25.3,41.7,25.3z M42.7,25.7c0.1,0,0.2-0.1,0.3-0.1c0.2,0.5,0.3,1,0.4,1.5c-0.2,0-0.3,0-0.5,0
		C42.9,26.7,42.8,26.2,42.7,25.7z M42.7,25.3C42.7,25.3,42.7,25.2,42.7,25.3c0.1-0.1,0.1-0.1,0.2-0.1l0,0
		C42.9,25.2,42.8,25.3,42.7,25.3z M43.3,24.5c0-0.1-0.1-0.2-0.1-0.3h0.1c0.1,0.1,0.2,0.2,0.2,0.3C43.4,24.5,43.3,24.5,43.3,24.5z
		 M43.5,14.4c-0.2,0-0.4,0.1-0.5,0.1c0.1-0.3,0.2-0.5,0.2-0.7c0.3-0.1,0.4-0.2,0.4-0.2c-0.1,0-0.3,0.1-0.4,0.1
		c0.1-0.3,0.2-0.6,0.3-0.8c0.3-0.1,0.6-0.1,0.9-0.2c-0.1,0.2-0.1,0.3-0.2,0.5C43.9,13.6,43.7,14,43.5,14.4z M43.6,12.6
		c0.2-0.4,0.3-0.8,0.4-1c0.3-0.1,0.6-0.2,0.9-0.2c-0.2,0.4-0.3,0.8-0.5,1.2C44.1,12.6,43.8,12.6,43.6,12.6z M39,12.8
		c2.4-2.7,6.7-3.9,6.9-4c-0.3,0.6-0.6,1.3-0.9,2.1C42.1,10.9,39,12.8,39,12.8z M43.9,11.6c-0.2,0.4-0.4,0.7-0.5,1
		c-0.3,0-0.6,0.1-0.9,0.1c0.6-0.4,1-0.6,1-0.6c-0.8,0.2-1.5,0.5-2,0.9c-1.9,0.6-3.1,1.5-3.6,2c0.1-0.2,0.1-0.4,0.2-0.6
		C39.9,13,42.2,12.1,43.9,11.6z M35,20.2c0-0.4-0.1-0.9-0.1-1.3c0,0.1,0,0.1,0.1,0.2c0,0.5,0.1,1,0.2,1.5
		C35.1,20.5,35.1,20.3,35,20.2z M32.7,19.7L32.7,19.7C32.7,19.6,32.7,19.6,32.7,19.7L32.7,19.7C32.7,19.6,32.7,19.6,32.7,19.7z
		 M27.6,15l-0.1,0.1c0,0,0,0,0-0.1C27.5,15,27.5,15,27.6,15C27.5,15,27.6,15,27.6,15z M16.6,14.4c0.1-0.1,0.2-0.2,0.3-0.3
		c-0.1,0.1-0.1,0.3-0.2,0.5c-0.1,0-0.2,0-0.3,0C16.5,14.5,16.6,14.4,16.6,14.4z M18.2,13.7C18.2,13.7,18.3,13.6,18.2,13.7
		c0,0.2-0.1,0.5-0.2,0.8c-0.1,0-0.3,0-0.4,0C17.8,14.2,18,13.9,18.2,13.7z M17.7,14.8c-0.1,0-0.2,0-0.3,0.1v-0.1
		C17.6,14.8,17.7,14.8,17.7,14.8z M18.8,15.7C18.8,15.7,18.8,15.8,18.8,15.7C18.7,15.8,18.7,15.8,18.8,15.7
		C18.8,15.8,18.8,15.7,18.8,15.7z M19.2,16.6v0.1h-0.1C19.1,16.7,19.1,16.7,19.2,16.6z M19.2,18c0,0.1,0,0.1,0,0.2
		C19.2,18.2,19.1,18.1,19.2,18C19.1,18.1,19.2,18,19.2,18z M19.6,18.9c0.2-0.2,0.3-0.5,0.5-0.8h0.1c-0.2,0.3-0.4,0.7-0.6,1
		C19.6,19,19.6,19,19.6,18.9z M20.9,18.2c0,0,0.1,0,0.2,0c-0.5,0.8-0.9,1.6-1.2,2.4c-0.1,0-0.1,0-0.2,0.1c0-0.2-0.1-0.5-0.1-0.8
		C20,19.4,20.4,18.8,20.9,18.2z M19.8,20.9V21C19.7,21,19.7,21,19.8,20.9C19.7,20.9,19.8,20.9,19.8,20.9z M19.7,21.8v0.1h-0.1
		C19.7,21.9,19.7,21.9,19.7,21.8z M13.3,26.3c0.1,0.1,0.1,0.2,0.2,0.4c0,0.2,0,0.4,0,0.6c-0.1-0.3-0.2-0.6-0.3-0.9
		C13.2,26.3,13.3,26.3,13.3,26.3z M13.5,28.8c0,0.9,0.1,1.9,0.3,2.9c-0.7-1.4-1.3-3.1-1.3-4.7c0,0,0,0,0.1-0.1
		C12.6,27.4,12.9,28.1,13.5,28.8z M14.2,29.6l0.1,0.1c0.1,0.7,0.2,1.4,0.4,2.1c0.1,0.6,0.3,1.1,0.4,1.5c-0.1,0.2-0.2,0.3-0.3,0.5
		c-0.1-0.2-0.2-0.4-0.3-0.6C14.4,32.3,14.3,31.1,14.2,29.6z M15.2,34.5c0,0,0.1,0,0.1,0.1c0,0,0.1,0,0.1,0.1l0,0c0,0,0.1,0,0.1,0.1
		c0.1,0.2,0.1,0.3,0.2,0.5c-0.2-0.2-0.4-0.4-0.6-0.6C15.1,34.6,15.2,34.5,15.2,34.5z M17.1,34.3c0.2,0.4,0.4,0.7,0.7,1.1
		c-0.2-0.1-0.3-0.2-0.5-0.3C17.3,34.9,17.2,34.6,17.1,34.3z M18.8,36.5c0,0,0.1,0,0.2,0.1C19,36.5,18.9,36.5,18.8,36.5L18.8,36.5z
		 M19.8,36.5c-0.6-1.1-1.3-2.6-1.6-4.2c0.3,1.2,0.9,2.8,1.8,4.3C19.9,36.6,19.8,36.5,19.8,36.5z M26.2,32.6
		C26.2,32.7,26.1,32.7,26.2,32.6C26.1,32.7,26.2,32.7,26.2,32.6c0.3,0.3,0.7,0.6,1.1,0.9l-0.1,0.1c0,0,0,0,0.1-0.1l0,0l0,0
		c0.1,0,0.2-0.1,0.3-0.2c0.2,0.2,0.4,0.3,0.5,0.5c-0.3,0.2-0.7,0.4-1,0.6c-0.2-0.2-0.3-0.4-0.5-0.6c-1-1.1-1.6-2.1-1.9-3.1
		C25.1,31.3,25.5,32,26.2,32.6z M31.4,32.8c-0.7,0.5-1.6,1.2-2.4,1.9c0-0.1-0.1-0.3-0.3-0.6C29.5,33.7,30.4,33.2,31.4,32.8z
		 M33.4,32.1c0,0-0.1,0.1-0.3,0.2c-0.4,0.2-0.9,0.5-1.4,0.8C32.5,32.5,33.1,32.1,33.4,32.1z M30.6,36.5c-0.1,0.1-0.1,0.2-0.2,0.3
		l0,0c0,0-0.2,0.1-0.5,0.2C30.1,36.8,30.4,36.6,30.6,36.5z M33.5,32.9c-0.1,0.2-0.2,0.4-0.2,0.7c0-0.1,0-0.3,0-0.4
		C33.3,33,33.4,32.9,33.5,32.9z M75.1,62.3c0.2,0,0.3,0,0.4,0c-0.2,0.2-0.4,0.5-0.6,0.7c-0.2,0.1-0.5,0.2-0.7,0.4
		c-0.1,0-0.2,0.1-0.3,0.1C74.1,63.1,74.6,62.7,75.1,62.3z M75.3,66.9C75,67,74.7,67,74.4,67c0.2,0,0.4-0.1,0.5-0.1
		C75.1,66.9,75.2,66.9,75.3,66.9z M76.7,76.8c0.2,0,0.3,0,0.5,0c-0.2,0.1-0.5,0.2-0.7,0.3C76.6,77,76.7,76.9,76.7,76.8z M76.9,76.5
		c0.1-0.2,0.2-0.3,0.3-0.5c0.8-0.1,1.5-0.1,2-0.2c-0.3,0.2-0.6,0.3-0.9,0.5C77.9,76.4,77.4,76.5,76.9,76.5z M80.2,75.8L80.2,75.8
		L80.2,75.8L80.2,75.8z M80.6,74.9c-0.9,0.4-2.2,0.7-3.2,0.9c0.1-0.2,0.2-0.4,0.4-0.6c1.3-0.1,2.5-0.4,3.1-0.5
		C80.8,74.7,80.7,74.8,80.6,74.9z M78.9,72.3L78.9,72.3c0.4-0.2,0.7-0.3,1.1-0.5c-0.2,0.2-0.4,0.3-0.6,0.5
		C79.2,72.3,79.1,72.3,78.9,72.3z M79.1,71.5c0-0.1,0-0.2,0.1-0.3c0.4-0.2,0.7-0.5,1-0.7C79.8,70.9,79.5,71.3,79.1,71.5z M79.2,70.8
		L79.2,70.8c0.4-0.4,0.7-0.6,1-0.9C79.9,70.2,79.6,70.5,79.2,70.8z M76.6,73.1C76.6,73.1,76.5,73.1,76.6,73.1
		c-0.8,0.4-1.6,0.6-2.3,0.7c-0.2-0.1-0.4-0.2-0.6-0.3c1-0.1,1.9-0.2,2.7-0.4c-0.3,0.1-0.5,0.2-0.5,0.2
		C76.1,73.2,76.4,73.2,76.6,73.1z M78.5,73.5L78.5,73.5c0.1,0,0.1,0,0.2,0c-0.1,0.1-0.2,0.1-0.3,0.1C78.5,73.7,78.5,73.6,78.5,73.5z
		 M79.5,73.1L79.5,73.1L79.5,73.1L79.5,73.1z M76.4,72.7L76.4,72.7c-1,0.4-2.2,0.6-3.1,0.6c-0.1,0-0.1-0.1-0.2-0.1
		C74.2,73.1,75.4,72.9,76.4,72.7z M73.7,73.9L73.7,73.9C73.6,73.9,73.6,73.9,73.7,73.9C73.6,73.9,73.7,73.9,73.7,73.9z M75.6,74.1
		c-0.1,0-0.3,0.1-0.4,0.1S75,74.1,75,74.1C75.2,74.1,75.4,74.1,75.6,74.1z M76.7,75.4c0.1,0.1,0.2,0.1,0.3,0.1v0.1
		c-0.2,0-0.5-0.1-0.7-0.1C76.4,75.5,76.5,75.5,76.7,75.4z M80.4,76.4L80.4,76.4L80.4,76.4L80.4,76.4z M78,74.7
		c0-0.1,0.1-0.1,0.1-0.2c0.5-0.2,1-0.5,1.4-0.7c0.8,0.1,1.4,0,1.7-0.1c0,0,0,0,0,0.1C80.3,74.2,79.1,74.5,78,74.7z M80.6,73.1
		c0.2-0.1,0.3-0.2,0.4-0.3c0.1,0,0.2,0,0.3,0v0.1C81.1,73,80.8,73.1,80.6,73.1z M79.2,67.8c0-0.1,0-0.2,0-0.3
		c0.5-0.5,0.9-0.9,1.1-1.1l0,0C80,66.9,79.6,67.3,79.2,67.8z M72,58.9C72.1,58.9,72.1,58.9,72,58.9L72,58.9
		C72.1,58.9,72,58.9,72,58.9z M72.6,58.1C72.7,58.1,72.7,58.1,72.6,58.1C72.6,58.2,72.6,58.2,72.6,58.1L72.6,58.1z M90.4,53.7
		c-2.9,0.6-7.5,2-8.2,2.2C86.3,54,89.9,53.7,90.4,53.7z M76.9,56.4c0.2-0.2,0.4-0.4,0.6-0.6c0.5-0.3,1.1-0.5,1.7-0.8
		C77.9,55.8,76.9,56.4,76.9,56.4z M79,54.7L79,54.7C78.9,54.8,78.9,54.8,79,54.7C78.9,54.8,79,54.8,79,54.7z M79.6,54
		c-0.3,0.2-0.5,0.4-0.8,0.5c-0.2,0.1-0.4,0.1-0.6,0.2C78.7,54.4,79.2,54.2,79.6,54z M71.5,57.4c-0.2,0.1-0.3,0.2-0.5,0.3l0,0h-0.1
		c0.4-0.3,0.9-0.7,1.4-1.2C72,56.9,71.7,57.2,71.5,57.4z M70.4,57.5L70.4,57.5L70.4,57.5C70.3,57.5,70.3,57.6,70.4,57.5
		c0,0,0,0,0.1-0.1c0.2-0.2,0.5-0.4,0.8-0.7c0.4-0.2,0.8-0.4,1.3-0.7C71.7,56.6,70.9,57.2,70.4,57.5z M70.7,56.6c0,0,0.1-0.1,0.2-0.2
		c0.3-0.2,0.6-0.5,1.1-0.8C71.3,56.1,70.9,56.5,70.7,56.6z M76.6,49.4c-0.2,0.2-0.5,0.6-0.8,0.9c0.1-0.1,0.2-0.2,0.2-0.4
		C76.2,49.8,76.4,49.6,76.6,49.4z M75.8,49.8c-0.1,0.1-0.2,0.1-0.3,0.2c0.3-0.4,0.6-0.8,0.9-1.2C76.2,49.2,76,49.5,75.8,49.8z
		 M74.6,50.4c-0.3,0.4-0.6,0.7-0.9,1c-0.1,0.1-0.2,0.2-0.3,0.2C73.4,51.6,73.9,51.1,74.6,50.4z M79.3,38.8c-0.1,0.3-0.6,2.4-2.1,5.1
		c-0.6,0.9-1.3,1.9-2.1,2.7C75.1,46.6,78,41.8,79.3,38.8z M74.6,47.7c-0.1,0.1-0.2,0.3-0.3,0.5c0-0.1,0.1-0.2,0.1-0.4
		C74.5,47.8,74.5,47.8,74.6,47.7z M74.7,41.9L74.7,41.9C74.7,42,74.7,42,74.7,41.9C74.7,42,74.7,41.9,74.7,41.9z M73.8,46.9
		c0,0,0-0.5-0.1-1.2C73.8,46,73.8,46.5,73.8,46.9z M68.6,51.6c0,0,0,0.1,0.1,0.2C68.7,51.7,68.7,51.7,68.6,51.6L68.6,51.6z
		 M46.9,47.9c0.3-0.7,0.7-1.3,1.3-1.9c0,0,0,0,0.1,0c-0.1,0.1-0.2,0.3-0.3,0.6C47.6,46.9,47.3,47.4,46.9,47.9z M50.1,45.7
		c0,0.1-0.1,0.2-0.2,0.3c-0.1,0.1-0.2,0.2-0.4,0.3c0.1-0.2,0.2-0.4,0.3-0.5C50,45.8,50.1,45.8,50.1,45.7z M49.2,47.8
		c0-0.2,0.1-0.4,0.1-0.6c0.1-0.1,0.1-0.1,0.2-0.2C49.5,47.3,49.3,47.6,49.2,47.8z M51,45.4L51,45.4L51,45.4L51,45.4z M51.7,45.7
		C51.7,45.7,51.7,45.6,51.7,45.7C51.7,45.6,51.7,45.7,51.7,45.7L51.7,45.7z M54.2,44.6L54.2,44.6c0,0.3-0.2,0.9-0.2,1.8
		c-0.5,0.6-1,1.4-1.4,2.2C52.8,47.2,53.4,45.7,54.2,44.6z M54.7,46.4L54.7,46.4L54.7,46.4C54.7,46.5,54.7,46.4,54.7,46.4z
		 M54.7,47.5c0.1-0.1,0.2-0.2,0.3-0.4c0,0.2,0,0.5,0,0.7c0,0.1-0.1,0.1-0.1,0.2C54.8,47.9,54.8,47.7,54.7,47.5z M54.8,51.2
		c0,0.3-0.1,0.5-0.2,0.5c0.1-0.1,0.3-0.5,0.4-1c0.1-0.1,0.1-0.2,0.2-0.3c0.1,0.4,0.1,0.7,0.2,1c0,0.2-0.1,0.3-0.1,0.5
		c-0.3,0.1-0.7,0.2-1,0.2C54.3,52.1,54.5,51.8,54.8,51.2z M42.9,64.2c0,0,0,0.1,0,0.2c0,0,0,0-0.1,0C42.8,64.3,42.8,64.3,42.9,64.2z
		 M42.7,64.6C42.7,64.6,42.8,64.6,42.7,64.6c0.1,0.1,0,0.3,0,0.5c-0.1,0-0.2,0.1-0.4,0.1C42.4,65.1,42.5,64.9,42.7,64.6z M42.1,65.6
		c-0.3,0.7-0.4,1.1-0.4,1.1S41.9,66.3,42.1,65.6c0.2,0,0.3-0.1,0.5-0.1c-0.1,0.4-0.1,0.8-0.2,1.3c-1,0.4-2,0.9-2.9,1.5
		c0,0,1.3-0.5,2.9-1.1c0,0.2,0,0.4,0,0.6c-1.1,0.6-2.2,1.2-3.3,2c0-1.2,0-2.3,0.1-3.4C39.5,66.2,40.6,65.9,42.1,65.6z M37.1,30.4
		c0.1-0.5,0.3-1,0.4-1.5c0.1,0,0.2-0.1,0.3-0.1c-0.2,1-0.4,2.5-0.4,4.1C37.3,31.8,37.2,31,37.1,30.4z M38.5,27.9c0-0.1,0-0.3,0-0.4
		c0.1-0.1,0.2-0.1,0.2-0.2c0,0.1,0,0.3,0.1,0.4C38.7,27.9,38.6,27.9,38.5,27.9z M39.3,27.1c0.1-0.1,0.2-0.1,0.4-0.2
		c0.1,0.2,0.2,0.4,0.3,0.6c-0.2,0.1-0.4,0.1-0.6,0.2C39.3,27.5,39.3,27.3,39.3,27.1z M41.6,26.1c0.2-0.1,0.4-0.1,0.5-0.2
		c0,0,0,0.1,0.1,0.1c0.1,0.3,0.2,0.7,0.4,1.1c-0.3,0-0.7,0-1,0.1C41.5,26.8,41.5,26.5,41.6,26.1z M43.7,28.8
		c-0.1-0.3-0.4-0.7-0.5-1.2c0.1,0,0.3,0,0.4,0C43.6,28,43.7,28.4,43.7,28.8z M43.9,27.1c-0.1-0.6-0.2-1.2-0.3-1.7
		c0.1,0,0.2,0,0.3-0.1c0.1,0.5,0.2,1.1,0.2,1.8C44,27.1,43.9,27.1,43.9,27.1z M44.4,24.6c-0.1-0.3-0.1-0.5-0.2-0.7h0.1
		c0.1,0.2,0.3,0.4,0.4,0.8C44.7,24.6,44.6,24.6,44.4,24.6z M47.5,25.3L47.5,25.3L47.5,25.3L47.5,25.3z M56.7,26.9c0-0.2,0-0.4,0-0.5
		c0.1-0.1,0.2-0.2,0.2-0.3c0,0,0.1,0,0.1,0.1C57,26.4,56.9,26.6,56.7,26.9z M54.4,28.7c-0.2,0.2-0.3,0.4-0.5,0.6
		c0.1-1.2,0.1-2.5,0-3.5C54.3,26.8,54.4,27.8,54.4,28.7z M53.6,29.8c0,0.1-0.1,0.1-0.2,0.2c0.2-1.7,0-3.4-0.1-4.6
		C53.8,26.9,53.8,28.5,53.6,29.8z M54.5,29.3C54.5,29.3,54.5,29.4,54.5,29.3c0,0.1-0.1,0.1-0.1,0.1C54.4,29.4,54.4,29.4,54.5,29.3z
		 M55.1,26.7c0,0.3,0.1,0.6,0.1,0.8c-0.1,0.2-0.2,0.3-0.3,0.5C55,27.5,55,27.1,55.1,26.7z M52.3,31.2c0.4-1.1,0.6-2.3,0.6-3.4
		c0.1,1,0.1,1.9,0.1,2.7C52.7,30.8,52.5,31,52.3,31.2z M54.8,29.2c0-0.1,0-0.1,0-0.2c0.2-0.2,0.3-0.4,0.5-0.6c0,0.1,0,0.3,0,0.4
		C55.1,28.9,54.9,29.1,54.8,29.2z M56.1,27.9L56.1,27.9L56.1,27.9L56.1,27.9z M56.8,28.2c0.5-0.7,0.8-1.3,0.9-1.6c0,0,0,0,0.1,0
		c0,1.4-0.6,2.9-1.2,4.1C56.7,29.8,56.8,29,56.8,28.2z M59.2,28.9C59.2,28.8,59.2,28.8,59.2,28.9C59.2,28.8,59.2,28.8,59.2,28.9
		L59.2,28.9z M59.9,29L59.9,29L59.9,29L59.9,29z M59.9,31.9c0.1-0.3,0.2-0.6,0.2-0.8c0,0.1,0,0.2,0.1,0.3
		C60.1,31.6,60,31.7,59.9,31.9z M60.5,30.6c0-0.2-0.1-0.3-0.1-0.5c0-0.1,0.1-0.2,0.1-0.4c0.1,0.1,0.1,0.2,0.2,0.3
		C60.6,30.2,60.5,30.4,60.5,30.6z M61.8,33.2c0.1-0.6,0-1.1,0-1.6c0.1-0.3,0.1-0.5,0.1-0.7c0,0,0,0,0,0.1
		C62.1,31.7,62,32.5,61.8,33.2z M49.5,22.5c-2.2-0.2-4.1,0.1-5.8,0.7c-1.3,0.1-2.2,0.3-2.2,0.3C43.9,22.2,47.3,22.3,49.5,22.5z
		 M49.3,15.8c-1,0.3-1.5,0.6-1.5,0.6C48.2,16.1,48.7,15.9,49.3,15.8z M52.3,12.9L52.3,12.9L52.3,12.9L52.3,12.9z M53.3,5.6
		c-1.6,1.9-3.5,4.7-4.9,6.7C50.6,8.4,52.8,6,53.3,5.6z M43.7,17.7c0,0.1-0.1,0.1-0.1,0.1C43.7,17.8,43.7,17.7,43.7,17.7L43.7,17.7z
		 M42.9,18c-0.3,0.6-0.4,1-0.4,1c0-0.2,0.1-0.5,0.3-0.9C42.8,18,42.9,18,42.9,18z M45.3,11.3c-0.1,0.1-0.1,0.2-0.2,0.3
		C45.1,11.5,45.1,11.4,45.3,11.3C45.2,11.3,45.2,11.3,45.3,11.3z M46.1,8.5c0,0.1-0.1,0.2-0.2,0.3c-3.9,0.3-5.8,2.3-5.8,2.3
		c0.3-0.5,0.7-0.9,1.1-1.2C42.9,9.1,44.8,8.7,46.1,8.5z M38.2,5.3c-0.5,3.2-0.9,8.6-0.9,9.4C37,9.7,38.1,5.8,38.2,5.3z M36.1,21.5
		c0,0.2-0.1,0.4-0.1,0.6c0-0.1,0-0.1,0-0.1c-0.1-0.2-0.2-0.6-0.3-1.2C35.9,21.2,36,21.5,36.1,21.5z M35.5,19.5
		c-0.1-0.7-0.2-1.4-0.2-2.1c0.3,1.7,0.6,3,0.6,3C35.7,20,35.6,19.8,35.5,19.5z M34.9,17.5v0.1l0,0C34.9,17.6,34.9,17.6,34.9,17.5z
		 M34.6,17.7c0,0.2,0,0.5,0,0.7c-0.1-0.7-0.2-1.3-0.2-1.7C34.4,17,34.5,17.3,34.6,17.7z M29.4,15.1C29.4,15,29.3,15,29.4,15.1
		c-0.1-0.2-0.2-0.3-0.2-0.5C29.2,14.7,29.3,14.9,29.4,15.1z M28.5,14.5L28.5,14.5c-0.1-0.1-0.1-0.2-0.1-0.2
		C28.4,14.4,28.4,14.4,28.5,14.5z M22.2,9c0.8,1.2,1.6,2.6,2.4,4.2c-0.1,0-0.3,0-0.4-0.1C23.8,12,23.2,10.6,22.2,9z M10,17.4
		c0.3-0.7,0.8-1.5,1.4-2.1h0.1c-0.1,0.1-0.2,0.4-0.4,0.7C10.7,16.3,10.3,16.8,10,17.4z M13.6,15c-0.1,0.1-0.1,0.2-0.2,0.4
		c-0.1,0.1-0.3,0.2-0.4,0.4c0.1-0.2,0.2-0.4,0.3-0.6C13.4,15.1,13.5,15,13.6,15z M12.6,17.4c0-0.2,0.1-0.5,0.1-0.7
		c0.1-0.1,0.2-0.2,0.3-0.2C12.8,16.7,12.7,17,12.6,17.4z M14.6,14.6L14.6,14.6L14.6,14.6L14.6,14.6z M15.4,14.9L15.4,14.9L15.4,14.9
		L15.4,14.9z M16.1,15.3c0.1-0.2,0.2-0.4,0.3-0.6c0.1,0,0.2,0,0.2,0c-0.1,0.1-0.1,0.3-0.2,0.5C16.4,15.2,16.3,15.3,16.1,15.3z
		 M18,15.1c0,0.2,0,0.4,0,0.6c-0.1,0.2-0.2,0.4-0.4,0.5c-0.2,0-0.4,0.1-0.6,0.1c0,0,0.2,0,0.5,0c-0.2,0.3-0.5,0.7-0.7,1
		c-0.1,0-0.2,0.1-0.3,0.1c0.2-0.7,0.5-1.5,0.8-2.2C17.5,15.2,17.7,15.1,18,15.1z M16.3,18.2c0-0.2,0.1-0.4,0.2-0.6
		c0.1,0,0.1,0,0.2,0C16.6,17.7,16.4,17.9,16.3,18.2z M17.8,17c0.1-0.1,0.1-0.2,0.2-0.3c0,0.1,0,0.1,0,0.2l0,0
		C17.9,17,17.9,17,17.8,17z M18.9,17.4c0.1,0,0.2,0,0.2,0s0,0,0,0.1c-0.1,0.1-0.1,0.1-0.2,0.2C19,17.6,19,17.5,18.9,17.4z
		 M18.9,21.2c-0.1,0.3-0.2,0.5-0.2,0.6c0.1-0.1,0.3-0.5,0.5-1.1c0.1-0.1,0.1-0.2,0.2-0.4c0,0.2,0,0.3,0.1,0.5
		c-0.1,0-0.2,0.1-0.3,0.1c0,0,0.1,0,0.3,0c0,0.2,0.1,0.4,0.1,0.5c0,0.2-0.1,0.3-0.1,0.5c-0.4,0.1-0.8,0.2-1.1,0.4
		C18.4,22.3,18.5,21.8,18.9,21.2z M8.3,35c-0.2-0.8-0.3-1.7-0.2-2.6c0,0,0,0,0-0.1c0,0.2,0,0.4,0.1,0.8C8.2,33.6,8.2,34.3,8.3,35z
		 M9.7,30.8c0,0.1,0.1,0.3,0.1,0.4c0,0.2-0.1,0.4-0.1,0.6c-0.1-0.2-0.1-0.4-0.2-0.7C9.6,31,9.6,30.9,9.7,30.8z M10.3,33.4
		c-0.1-0.2-0.2-0.4-0.3-0.6c0-0.1,0-0.2,0.1-0.3C10.1,32.7,10.2,33,10.3,33.4z M10.2,30L10.2,30L10.2,30L10.2,30z M11,29.7L11,29.7
		L11,29.7C11,29.8,11,29.7,11,29.7z M14.7,34.1C14.7,34.1,14.8,34.1,14.7,34.1C14.8,34.1,14.8,34.1,14.7,34.1
		C14.8,34.1,14.7,34.1,14.7,34.1z M12.7,41.2C12.7,41.2,12.7,41.1,12.7,41.2c0.1,0.1,0.2,0.2,0.4,0.5c0.1,0.4,0.4,0.9,0.7,1.5
		C13.3,42.6,12.9,41.9,12.7,41.2z M13.5,39.7c0-0.1,0-0.2,0-0.3c0.1,0.1,0.2,0.2,0.2,0.3s0.1,0.3,0.1,0.5
		C13.7,40,13.6,39.9,13.5,39.7z M15,41.2c-0.2-0.1-0.3-0.2-0.5-0.4c0-0.1,0-0.2-0.1-0.3C14.6,40.7,14.8,40.9,15,41.2z M13.7,38.5
		L13.7,38.5L13.7,38.5L13.7,38.5z M14.3,38L14.3,38L14.3,38C14.3,38.1,14.3,38,14.3,38z M17.5,38.7c-1.1-0.9-2.2-2-2.8-3.3
		c0,0,0,0,0-0.1c0,0,0.1,0.1,0.2,0.2c0.2,0.4,0.3,0.4,0.3,0.4s0-0.1-0.1-0.2c0.3,0.2,0.6,0.5,1.1,0.7C16.6,37.1,17,37.9,17.5,38.7z
		 M16.7,35.9C16.7,35.8,16.7,35.8,16.7,35.9C16.7,35.8,16.7,35.8,16.7,35.9C16.8,35.9,16.8,35.9,16.7,35.9z M17.9,36.3
		c-0.1-0.1-0.1-0.3-0.2-0.4c0.2,0.1,0.5,0.2,0.7,0.4c0,0.1,0.1,0.1,0.1,0.2C18.3,36.4,18.1,36.4,17.9,36.3z M19.6,34.4
		c0.5,1,1.2,2,2,2.8c-0.3-0.1-0.6-0.2-0.9-0.3C20.3,36.3,19.9,35.4,19.6,34.4z M24.9,35.8c-0.2-0.4-0.6-1.3-1-2.3
		c0.2,0.4,0.5,0.7,0.7,1.1c0,0-1.2-2.3-1.2-4.9c0.3,0.8,0.7,1.7,1.2,2.5c0.5,2,0.3,2.9,0.3,2.9s0.3-0.8,0.1-2.4
		c0.2,0.2,0.4,0.5,0.6,0.7c0.5,0.5,0.9,0.9,1.3,1.3C26.2,35,25.5,35.4,24.9,35.8z M27.3,34.6c0.2-0.1,0.4-0.2,0.7-0.4
		C27.8,34.4,27.6,34.5,27.3,34.6L27.3,34.6z M27.5,34.8c0.3-0.2,0.7-0.4,1.1-0.6c0.2,0.2,0.3,0.4,0.4,0.5l0,0
		c-0.3,0.2-0.7,0.4-1,0.6C27.7,35.2,27.6,35,27.5,34.8z M28.1,35.8c0.5-0.4,1-0.8,1.4-1.2c0.6-0.4,1.2-0.7,1.7-1
		c-0.9,0.7-1.9,1.6-2.9,2.6C28.3,36.2,28.2,36,28.1,35.8z M24.9,39.8c0.3-0.3,0.7-0.6,1.1-1c-0.1,0.1-0.2,0.3-0.3,0.4
		C25.4,39.4,25.1,39.6,24.9,39.8z M25.9,39.5c0.1-0.1,0.2-0.2,0.4-0.2c-0.4,0.4-0.8,0.8-1.3,1.3C25.3,40.2,25.6,39.8,25.9,39.5z
		 M27.5,38.9c0.4-0.4,0.8-0.7,1.2-1.1c0.2-0.1,0.3-0.1,0.5-0.2C29.2,37.7,28.5,38.2,27.5,38.9z M19.7,52.2c0.1-0.4,1.2-2.9,3.5-5.8
		c0.9-1,1.9-2,3-2.9C26.2,43.5,21.8,48.8,19.7,52.2z M27,42.2c0.1-0.1,0.2-0.3,0.4-0.6c-0.1,0.1-0.1,0.3-0.2,0.4
		C27.2,42.1,27.1,42.2,27,42.2z M25.8,49.3C25.8,49.2,25.8,49.2,25.8,49.3C25.8,49.2,25.8,49.2,25.8,49.3L25.8,49.3z M27.9,43.4
		c0,0-0.1,0.6-0.1,1.5C27.7,44.4,27.7,43.9,27.9,43.4z M34.5,32.8c0,0-0.9,2.3,0.3,5.4c-0.4-0.8-0.9-1.8-1.2-2.9
		C33.8,34.5,34.1,33.6,34.5,32.8z M35,38.5c-0.1-0.7-0.5-3.1,0-5.5c0,0.2,0.1,0.3,0.1,0.3c0-0.2,0-0.3,0-0.5v-0.1
		c0.2,1.7,0.4,3.9,0.6,6.8C35.4,39.2,35.2,38.9,35,38.5z M66.7,61.9c0.2-0.1,0.3-0.2,0.5-0.3c0,0,0,0,0,0.1
		C67,61.7,66.9,61.8,66.7,61.9z M67.3,61.6C67.3,61.5,67.3,61.5,67.3,61.6c0.2-0.2,0.5-0.4,0.7-0.6c0,0.1,0,0.1,0,0.2
		C67.8,61.3,67.5,61.4,67.3,61.6z M68.1,60.9c0.4-0.3,0.8-0.5,1.1-0.7c0.6-0.2,1.3-0.4,1.8-0.5c0.1,0,0.2,0,0.2,0l0,0
		C70.6,59.9,69.4,60.4,68.1,60.9C68.2,61,68.2,61,68.1,60.9z M70.9,61.8c0.4-0.5,1-1,1.7-1.4c0.1,0,0.1,0.1,0.2,0.1
		C72.2,60.7,71.5,61.2,70.9,61.8z M72,62.7C72.1,62.7,72.1,62.7,72,62.7c0,0.1-0.1,0.2-0.2,0.4C71.9,63,72,62.8,72,62.7z M72.9,62.4
		c0.3-0.1,0.5-0.1,0.8-0.2c-0.5,0.2-1.1,0.5-1.6,0.9C72.3,62.9,72.6,62.6,72.9,62.4z M73,63.8c0.2-0.1,0.3-0.2,0.5-0.3
		c0,0.1-0.1,0.1-0.1,0.2C73.2,63.7,73.1,63.7,73,63.8z M73.6,63.8L73.6,63.8L73.6,63.8L73.6,63.8z M74.7,63.6
		c0.2-0.1,0.4-0.1,0.5-0.2c-0.3,0.2-0.7,0.5-1.1,0.7c-0.1,0.1-0.2,0.1-0.3,0.2c-0.1,0-0.2,0.1-0.3,0.1C74,64.2,74.4,63.9,74.7,63.6z
		 M74.3,64.6c0.2-0.1,0.4-0.2,0.6-0.3c0.7-0.2,1.4-0.5,1.8-0.7c-0.1,0.1-0.2,0.3-0.3,0.4C75.8,64.3,75.1,64.5,74.3,64.6z M73.9,66.1
		c0.3-0.1,0.5-0.2,0.8-0.3c-0.2,0.1-0.4,0.2-0.5,0.2C74.1,66.1,74,66.1,73.9,66.1z M73.8,66.5c-0.1,0-0.3,0-0.4,0c0.1,0,0.1,0,0.2,0
		C73.7,66.5,73.7,66.5,73.8,66.5z M74,71.4c0.4,0,0.8-0.1,1.1-0.1c-0.3,0.1-0.5,0.2-0.8,0.2C74.2,71.5,74.1,71.4,74,71.4z
		 M71.8,72.3c1,0.2,2.1,0.2,3.1,0.1c-0.9,0.2-1.7,0.4-2.4,0.4C72.2,72.6,72,72.4,71.8,72.3z M74.1,74.1c0.2,0.1,0.3,0.2,0.5,0.3
		c-0.1,0-0.2,0.1-0.3,0.1c-0.1-0.1-0.2-0.2-0.3-0.3C74,74.2,74,74.1,74.1,74.1z M75.2,75.1L75.2,75.1L75.2,75.1L75.2,75.1z M75,75.8
		c0.3,0.1,0.5,0.2,0.7,0.3h-0.1h0.1c0.4,0.1,0.6,0.2,0.8,0.2c0,0,0,0,0,0.1c-1.2,0.2-2.6-0.1-3.8-0.5C73.5,75.9,74.3,75.9,75,75.8z
		 M74.7,77.9L74.7,77.9L74.7,77.9L74.7,77.9z M74.6,78.6L74.6,78.6L74.6,78.6L74.6,78.6z M72,78.9c0.3,0,0.5,0.1,0.8,0.1
		c-0.1,0-0.2,0.1-0.3,0.1S72.2,79,72,78.9z M73.3,79.3c0.2-0.1,0.3-0.1,0.4-0.2c0.1,0,0.2,0,0.3,0c-0.1,0.1-0.1,0.1-0.2,0.2
		C73.7,79.3,73.5,79.3,73.3,79.3z M71.1,80.8c0.6,0,1-0.1,1.4-0.2c0.3,0,0.5,0,0.6,0l0,0C72.4,80.8,71.7,80.8,71.1,80.8z M75.9,77.9
		c0.1-0.1,0.1-0.2,0.2-0.2s0.2,0.1,0.2,0.1C76.2,77.9,76.1,77.9,75.9,77.9z M78.1,77.7c0.3-0.1,0.5-0.1,0.8-0.2
		c-0.1,0.1-0.1,0.1-0.2,0.2C78.5,77.7,78.3,77.7,78.1,77.7z M79.4,77.5c0.1-0.1,0.2-0.2,0.3-0.3c0.1,0,0.2-0.1,0.3-0.1
		c0,0.1-0.1,0.2-0.1,0.2C79.8,77.4,79.6,77.5,79.4,77.5z M79.2,79c0.3-0.1,0.4-0.2,0.6-0.2c0,0,0,0,0,0.1c-0.5,0.4-1.2,0.7-1.8,0.9
		C78.5,79.5,78.9,79.2,79.2,79z M75.3,60.3L75.3,60.3c0.1,0,0.3,0.1,0.5,0.2l0.1,0.1C75.7,60.5,75.5,60.4,75.3,60.3z M75.3,60
		c-0.4-0.3-0.8-0.5-1.2-0.7c-0.3-0.2-0.6-0.4-0.8-0.5c0.2,0,0.5,0,0.7,0.1C74.4,59.2,74.9,59.6,75.3,60z M81.5,57.1
		c0.4,0,0.8,0.2,1.2,0.3C82,57.1,81.5,57.1,81.5,57.1z"/>
</g>
</svg>
